<?xml version="1.0" standalone="no"?>
<!DOCTYPE svg PUBLIC "-//W3C//DTD SVG 1.1//EN" "http://www.w3.org/Graphics/SVG/1.1/DTD/svg11.dtd">
<svg xmlns="http://www.w3.org/2000/svg">
<metadata>Generated by Fontastic.me</metadata>
<defs>
<font id="pragma-font" horiz-adv-x="512">
<font-face font-family="pragma-font" units-per-em="512" ascent="480" descent="-32"/>
<missing-glyph horiz-adv-x="512" />

<glyph glyph-name="action" unicode="&#57344;" d="M392 218c-2 9-10 16-19 18-8 1-15-1-21-7-8 15-27 19-39 6-4 7-10 12-17 13-8 1-15-1-21-7 0 2 0 3 0 4 0 24 0 48 0 72 0 10-5 18-14 22-15 7-32-4-32-20 0-9 0-17 0-25 0-44 0-89 0-133 0-1 0-1 0-2 0 0-1 0-1 0-7 15-14 30-21 44-5 11-16 16-28 13-12-4-20-18-14-30 4-9 8-18 12-27 6-12 11-23 16-35 6-12 12-25 18-37 4-8 8-15 11-23 3-7 7-14 12-20 7-7 15-12 24-17 11-5 22-8 34-10 16-1 31 0 46 4 9 2 18 6 26 11 10 6 18 14 23 24 5 8 5 17 5 25 0 44 0 87 0 130 0 2 0 4 0 7z m-150 249c0-5 0-11 0-16 5 0 10 0 15 0 0 12 0 23 0 34 0 5-1 8-6 10-1 0-2 0-3 0-4-2-6-5-6-10 0-6 0-12 0-18z m-42-186c5-4 11-2 12 4 1 3-1 6-4 8-17 14-26 32-26 54 1 35 29 63 64 65 44 3 79-39 69-81-3-13-9-23-17-32-4-4-4-9 0-12 3-2 7-2 10 2 15 16 23 35 23 58 0 3 0 6-1 9-5 45-48 77-93 70-51-8-82-60-64-108 5-15 14-28 27-37z m-79 139c-2-3-1-7 2-9 11-6 22-13 33-19 2 4 4 8 7 13-11 6-22 12-33 19-4 1-7 0-9-4z m257-148c2 4 2 8-2 10-10 6-21 12-32 19-3-4-5-8-8-13 12-6 23-13 34-19 3-2 7 0 8 3z m-254 10c-4-2-5-6-3-10 2-4 6-5 10-2 10 6 20 11 30 17 0 0 1 1 2 2-3 4-5 8-7 12-11-7-22-13-32-19z m251 129c4 2 5 6 3 10-2 3-6 4-10 2-8-5-16-9-24-14-2-1-5-3-8-5 3-4 5-8 8-12 11 6 21 13 31 19z"/>
<glyph glyph-name="brightness" unicode="&#57345;" d="M256 479c94 0 174-59 206-141l21 0c-34 93-123 159-227 159-104 0-193-66-227-159l21 0c32 82 112 141 206 141z m240-198l-20 0c1-8 2-16 2-24 0-122-100-222-222-222-122 0-222 100-222 222 0 8 1 16 2 24l-20 0c-1-9-1-17-1-25 0-133 108-241 241-241 133 0 241 108 241 241 0 8 0 16-1 25z m-343-107l21 22 17-17-21-21z m89-46l0 35 23 0 0-35z m11 201c39 0 71-32 71-71 0-40-32-71-71-71-39 0-71 31-71 71 0 39 32 71 71 71z m95-60l35 0 0-23-35 0z m-33-90l17 16 21-21-17-16z m38 162l-21-21-17 16 21 22z m-88 46l0-35-23 0 0 35z m-107-118l0-23-35 0 0 23z m33 67l-17-16-21 21 17 17z"/>
<glyph glyph-name="gas" unicode="&#57346;" d="M256 479c94 0 174-59 206-141l21 0c-34 93-123 159-227 159-104 0-193-66-227-159l21 0c32 82 112 141 206 141z m240-198l-20 0c1-8 2-16 2-24 0-122-100-222-222-222-122 0-222 100-222 222 0 8 1 16 2 24l-20 0c-1-9-1-17-1-25 0-133 108-241 241-241 133 0 241 108 241 241 0 8 0 16-1 25z m-343-60c0-55 45-100 101-100 55 0 100 45 100 100 0 68-33 129-81 168 0 0 9-33 9-60 0-26-17-47-43-47-26 0-45 21-45 47l0 4c-26-30-41-69-41-112z m92 16c22 5 45 15 58 33 5-17 7-33 7-51 0-34-26-60-60-60-22 0-40 17-40 39 0 21 13 34 35 39z"/>
<glyph glyph-name="heatmap-chart" unicode="&#57347;" d="M81 189l115 0 0-96-115 0z m269 229l115 0 0-96-115 0z m-134-229l114 0 0-96-114 0z m-154-113l0 375-15 0 0-390 418 0 0 15z m288 228l115 0 0-96-115 0z m-134 0l114 0 0-96-114 0z m-135 105l115 0 0-96-115 0z"/>
<glyph glyph-name="parking-occupancy" unicode="&#57348;" d="M436 266c0-34 0-68 0-101 0 0-1 0-1 0-9 0-18 0-27 0 0 0 0 0-1 0 0-1 0-1 0-2 0-9 0-19 0-28 0-3 0-5-1-8-2-11-8-18-19-21-12-2-21 1-29 10-4 6-5 12-5 18 0 10 0 20 0 29 0 1 0 1 0 2-65 0-129 0-194 0 0-1 0-1 0-2 0-9 0-18 0-28 0-1 0-3 0-5-2-11-8-19-19-23-13-4-26 1-32 13-2 4-3 9-3 13 0 10 0 20 0 30 0 1 0 1 0 2-1 0-1 0-2 0-7 0-13 0-20 0-2 0-4 0-7 0 0 34 0 67 0 101 0 0 0 1 0 1 1 8 4 15 8 21 6 7 13 13 23 15 1 0 2 1 2 2 10 25 20 50 29 75 4 8 9 15 17 20 7 5 15 6 23 6 13 0 26 0 39 0 39 0 78 0 117 0 6 0 11 0 16-2 12-4 19-13 24-25 9-24 19-48 28-73 1-2 2-3 4-3 1 0 1-1 2-1 14-5 23-15 27-30 0-2 0-4 1-6z m-297 38c78 0 156 0 234 0-1 1-1 1-1 2-4 11-8 22-12 33-4 9-7 18-10 27-4 9-9 13-18 13-34 0-67 0-100 0-18 0-36 0-53 0-8 0-13-4-16-10 0-1 0-2-1-3-7-19-14-38-21-57-1-2-1-3-2-5z m240-29c-14 0-25-12-25-26 0-14 11-25 25-25 14-1 25 11 25 25 0 14-11 26-25 26z m-271-26c0-1 0-3 0-5 3-14 17-23 31-20 12 4 20 15 18 29-1 14-15 24-29 21-12-2-20-12-20-25z"/>
<glyph glyph-name="parking-peak-hour" unicode="&#57349;" d="M53 241c-12 0-24 0-38 0 21 35 42 70 63 105 21-35 42-70 63-105-14 0-27 0-41 0 1-9 2-17 4-26 17-70 72-121 143-133 93-15 183 47 201 140 20 94-43 188-138 207-12 2-24 2-35 3-13 2-20 11-19 25 1 13 10 22 23 21 105-2 194-77 214-181 23-120-57-237-177-260-117-21-230 52-257 168-3 12-4 24-6 36z m247 66c0-20-1-40 0-60 0-7-2-13-7-18-21-21-42-42-64-63-8-9-21-8-30 0-8 8-8 22 0 31 18 18 36 35 54 53 2 3 3 5 3 8 0 37 0 73 0 110 0 6 1 11 6 16 5 6 16 8 24 5 8-3 13-10 14-19 0-21 0-42 0-63z"/>
<glyph glyph-name="plan" unicode="&#57350;" d="M16 402c32 32 63 63 93 94 53-53 106-106 160-160 1 2 3 3 4 4 42 43 84 85 127 127 9 10 21 15 34 14 24 0 41-13 47-37 4-17 0-32-13-45-112-113-225-225-338-338-7-8-16-12-26-15-20-5-40-10-60-16-7-2-15 6-13 13 7 24 13 48 19 71 1 3 4 7 6 9 39 39 77 78 116 116 1 1 2 2 4 3-54 54-107 107-160 160z m391 41c-112-112-224-224-335-335 12-12 25-25 38-37 111 111 223 223 334 335-12 12-25 25-37 37z m-360-40c47-47 96-96 144-144 16 17 33 34 51 51-4 4-8 8-14 12 5 5 9 8 13 12-5 5-9 10-14 15-8-7-15-15-22-22-5 5-9 9-15 14 8 8 15 15 23 22-6 5-10 10-15 15-4-4-8-8-12-12-5 5-10 10-15 15 4 4 8 8 11 11-5 5-9 10-14 15-6-6-13-13-19-19-2-3-4-3-6-1-4 5-8 8-13 13 8 8 16 15 22 22-4 5-9 9-14 15-4-4-7-8-11-12-5 5-10 10-15 15 4 4 8 8 11 11-5 5-10 10-16 16-20-21-40-43-60-64z m449-295c-30-30-61-61-92-92-50 51-100 101-151 152 4 4 9 9 14 14 45-46 91-91 138-138 20 22 40 44 61 66 0-1 1-2 2-2-2 1-4 3-6 5-4-4-8-8-11-12-6 5-10 10-16 16 4 3 9 7 13 10-6 6-11 10-16 15-6-7-13-14-21-22-5 6-10 11-14 15 7 7 14 15 21 22-5 5-10 10-15 15-4-4-8-8-12-12-5 5-9 10-14 15 4 4 8 8 12 11-6 5-10 10-15 15-6-6-13-12-19-19-2-2-4-2-7 0-3 4-7 8-11 12 7 7 15 15 22 22-5 5-10 9-15 14-3-3-7-7-10-11-6 5-11 10-16 16 9 8 18 17 26 25 51-51 102-101 152-152z"/>
<glyph glyph-name="humidity" unicode="&#57351;" d="M256 479c94 0 174-59 206-141l21 0c-34 93-123 159-227 159-104 0-193-66-227-159l21 0c32 82 112 141 206 141z m240-198l-20 0c1-8 2-16 2-24 0-122-100-222-222-222-122 0-222 100-222 222 0 8 1 16 2 24l-20 0c-1-9-1-17-1-25 0-133 108-241 241-241 133 0 241 108 241 241 0 8 0 16-1 25z m-285-140c4-13 13-22 27-27 3-1 7-3 10-4 5 0 11 0 16 0 1 1 3 2 4 2 19 4 33 20 36 37 3 17-2 33-15 45-3 3-4 5-4 8 0 55 0 109 0 164 0 5 0 10-1 14-3 17-25 28-41 19-11-7-16-17-16-29 0-56 0-111 0-167 0-4-1-6-4-9-15-15-19-33-12-53z m22 49c2 2 3 4 3 7 0 58 0 115 0 173 0 8 2 15 9 19 12 8 27 1 29-10 1-5 2-9 2-13 0-28 0-55 0-82 0-29 0-58 0-87 0-2 1-5 3-6 12-10 18-23 16-39-2-13-10-22-21-28-7-4-14-6-21-5-15 2-28 11-34 26-6 18 0 35 14 45z m37-57c14 8 19 24 12 39-3 6-8 10-14 13-1 1-2 3-2 4-1 8-1 16-1 24l0 0c0 8 0 16 0 23 0 2 0 4-1 5-2 4-6 5-11 4-4-1-6-3-6-8 0-15-1-30 0-45 0-5-2-7-5-9-16-7-19-30-9-43 9-11 26-13 37-7z m51 183c18-5 35 5 39 22 2 9 1 17-3 24-4 8-9 16-14 24-5 8-11 16-14 25-2-5-5-10-7-15-3-4-6-9-9-14-3-4-5-7-7-11-3-6-6-12-8-18-4-17 6-34 23-37z m-14 31c2 0 3-2 3-4 1-8 7-14 15-15 2 0 4-1 4-3 0-2-2-2-4-2-11 0-20 10-20 20 0 2 0 4 2 4z"/>
<glyph glyph-name="bubble-chart" unicode="&#57352;" d="M62 76l0 375-15 0 0-390 418 0 0 15z m245 180c0-19-15-34-34-34-19 0-34 15-34 34 0 19 15 34 34 34 19 0 34-15 34-34z m-134 105c0-19-16-34-35-34-18 0-34 15-34 34 0 19 16 34 34 34 19 0 35-15 35-34z m266 9c0-17-14-31-31-31-17 0-31 14-31 31 0 17 14 31 31 31 17 0 31-14 31-31z m16-114c0-26-21-47-47-47-26 0-48 21-48 47 0 26 22 47 48 47 26 0 47-21 47-47z m-160-115c0-12-10-22-22-22-12 0-22 10-22 22 0 12 10 21 22 21 12 0 22-9 22-21z m-113 0c0-24-19-44-44-44-24 0-43 20-43 44 0 24 19 43 43 43 25 0 44-19 44-43z"/>
<glyph glyph-name="co2" unicode="&#57353;" d="M256 479c94 0 174-59 206-141l21 0c-34 93-123 159-227 159-104 0-193-66-227-159l21 0c32 82 112 141 206 141z m240-198l-20 0c1-8 2-16 2-24 0-122-100-222-222-222-122 0-222 100-222 222 0 8 1 16 2 24l-20 0c-1-9-1-17-1-25 0-133 108-241 241-241 133 0 241 108 241 241 0 8 0 16-1 25z m-189 54c-35 0-65-29-64-64 0-35 28-63 63-63 35 0 64 29 64 64 0 34-29 63-63 63z m-2-105c-21 0-40 19-40 41 1 22 19 40 41 40 22 0 41-19 41-41-1-22-19-40-42-40z m101-57c-4 2-8 1-15 1 6 5 10 9 13 13 6 8 7 20 2 29-6 9-16 13-27 11-10-2-19-10-19-20-1-3 3-8 5-12 3 3 6 5 9 8 2 2 4 8 6 8 4 0 11-1 11-3 2-4 1-11-2-14-7-8-16-14-24-21-2-2-3-7-3-10 0-2 4-5 7-5 12 0 25 0 37 0 3 1 8 5 7 7-1 3-4 7-7 8z m-241 137c17 5 32 0 43-14 6-7 11-9 18-3 6 5 4 11 0 17-17 21-45 29-71 20-24-8-42-33-42-62 1-21 12-40 33-52 26-15 62-8 80 16 4 6 6 12 0 18-6 5-12 3-17-3-2-2-4-4-6-6-12-12-31-14-46-5-14 7-23 26-20 41 3 16 11 28 28 33z"/>
<glyph glyph-name="lamp" unicode="&#57354;" d="M256 479c94 0 174-59 206-141l21 0c-34 93-123 159-227 159-104 0-193-66-227-159l21 0c32 82 112 141 206 141z m240-198l-20 0c1-8 2-16 2-24 0-122-100-222-222-222-122 0-222 100-222 222 0 8 1 16 2 24l-20 0c-1-9-1-17-1-25 0-133 108-241 241-241 133 0 241 108 241 241 0 8 0 16-1 25z m-263-186c-10 3-16 8-17 19 27 0 53 0 79 0 1-9-3-14-15-19-16 0-32 0-47 0z m23 91c-16 0-32 0-48 0-9 0-12 2-13 11-3 25-14 46-26 68-20 37-19 74 5 109 23 34 65 50 106 40 39-9 70-43 76-82 3-24-1-46-13-67-10-18-20-36-23-56-1-4-2-8-2-12-2-9-4-11-12-11-17 0-33 0-50 0z m0-31c-16 0-32 0-47 0-9 0-13 4-13 11 0 6 5 9 12 9 32 0 64 0 96 0 8 0 12-3 12-10 1-6-4-10-12-10-16 0-32 0-48 0z m1-10c16 0 32 0 48 0 7 0 12-4 12-10-1-6-5-10-12-10-33 0-65 0-97 0-8 0-12 4-12 10 0 6 4 10 12 10 16 0 32 0 49 0z"/>
<glyph glyph-name="polar-chart" unicode="&#57355;" d="M286 486c-62-5-116-26-161-67 55-55 109-108 161-159 0 73 0 149 0 226z m-165-94c-36-43-57-93-60-151 71 0 141 0 214 0-53 52-103 101-154 151z m-42-172c4-54 22-99 53-134 47 45 93 90 138 134-63 0-126 0-191 0z m207-194c0 58 0 116 0 173-40-40-81-80-123-122 36-31 76-48 123-51z m22 23c36-1 83 19 106 44-35 35-71 70-106 104 0-48 0-97 0-148z m1 346c0-48 0-93 0-137 31 31 64 63 98 95-29 25-61 38-98 42z m18-175c30-29 59-58 90-88 20 24 33 53 34 88-42 0-83 0-124 0z m1 22c31 0 62 0 97 0-10 24-19 46-28 68-24-25-47-46-69-68z"/>
<glyph glyph-name="spider-chart" unicode="&#57356;" d="M499 310c-2-7-5-14-7-22-5-15-10-30-15-46-8-25-17-51-25-76-9-29-19-57-28-85-5-18-11-35-17-52 0-3-2-4-4-4-98 0-196 0-294 0-3 0-4 1-5 4-10 31-20 62-30 93-10 30-19 60-29 90-11 32-21 65-32 97 0 1 0 2 0 2 16 12 32 24 48 36 21 15 42 30 63 45 19 14 37 27 56 41 22 16 45 33 68 49 8 6 8 6 16 0 22-15 43-31 64-46 24-18 49-36 73-53 21-16 42-31 63-46 10-8 21-15 32-23 1-1 2-2 3-2 0-1 0-2 0-2z m-19-7c-1 0-1 0-2 0-18-4-36-8-54-12-1-1-2-2-2-3-2-2-3-4-5-6-1-2-2-3-3-5-5-14-9-27-13-41-13-38-25-75-37-113-2-4-3-8-2-13 0-2-1-4-2-5-1-2-1-4 1-6 8-12 16-24 24-37 3-5 7-11 11-17 28 86 56 172 84 258z m-88-262c-12 19-24 38-36 56-1 1-2 2-2 2-4 0-8 1-12 1-25-3-50-7-75-10-37-5-75-9-112-14-2-1-4-2-5-3-3-2-6-4-10-4-1 0-2 0-3-1-6-9-11-18-17-27 91 0 181 0 272 0z m-276 4c0 1 1 1 1 2 5 8 10 15 15 23 0 1 0 3 0 4-3 5-3 9 0 14 1 1 1 3 1 5-3 16-6 32-10 48-8 45-17 89-26 134-1 1-2 3-3 3-4 3-6 5-6 10-1 3-2 4-5 4-14 3-29 7-43 10-3 1-5 1-8 2 28-87 56-172 84-259z m37 41c1 0 1 0 2 0 19 3 37 5 56 7 40 6 80 11 120 16 4 0 8 1 9 6 0 2 2 4 0 7-9 14-19 28-28 42-1 1-3 2-4 2-4 0-7 0-10 3-2 3-4 2-7 2-17-5-33-9-50-13-13-3-27-6-40-9-2-1-4-2-5-5-1-5-6-9-12-8-2 0-3 0-4-2-2-4-5-7-7-11-7-11-14-22-21-33-1-1-1-2-1-3 0 0 1-1 2-1z m106 381c0-11 0-21 0-31 0-1 1-2 2-2 5-3 6-6 7-11 0-2 1-3 2-4 6-6 12-11 18-16 20-16 39-33 58-49 20-16 39-33 59-50 1 0 3-1 5-1 4 0 7-2 10-5 1-2 2-2 5-2 10 3 21 5 32 8 7 1 13 3 20 4-73 53-145 106-218 159z m-223-158c17-4 34-8 50-12 2 0 4 0 6 1 2 2 5 2 7 3 2 0 4 0 5 2 23 18 45 37 68 56 23 20 47 40 70 59 1 1 2 3 2 5 1 5 2 8 7 11 1 0 2 2 2 4 0 8 0 17 0 25 0 1 0 2 0 3-73-52-145-105-217-157z m108-217c1 0 1-1 2-1 0 1 1 2 1 3 10 14 19 29 28 43 1 1 1 3 0 4-3 6-1 12 4 16 2 1 3 3 2 5-2 24-4 47-6 70-1 9-2 17-3 26 0 1 0 3-1 3-7 2-9 7-9 14-17 3-33 7-50 11 0 0-2 0-2-1-1-2-4-4-3-9 3-14 6-28 9-43 9-44 18-89 27-134 0-3 1-5 1-7z m256 202c-1 2-2 3-4 4-12 11-24 21-36 31-18 15-35 29-53 44-14 12-29 25-44 38-1 0-2 1-3 1-1-1-1-2-1-3 0-20 0-40-1-60 0-3 1-4 3-5 5-2 7-6 6-11 0-3 1-4 3-6 20-14 40-29 60-43 1-1 3-1 4-1 5 2 9 1 13-2 0-1 2-2 3-1 15 3 31 6 46 10 1 0 2 2 4 4z m-147 85c0 9 0 19 0 29 0 1 0 3-1 4-1-1-3-1-4-2-16-14-33-28-49-42-29-24-58-48-87-73-1-1-1-2-2-3 1 0 2-1 3-1 16-4 32-7 48-11 2 0 4 0 5 1 3 3 7 4 11 2 3-1 4 0 6 2 7 5 14 10 21 14 12 10 25 19 38 28 2 2 3 3 3 6-1 4 1 9 5 11 3 1 3 3 3 5 0 10 0 20 0 30z m94-257c4 0 6 0 7 3 3 10 6 20 9 30 13 41 27 82 40 123 2 4-2 8-6 7-14-4-29-7-44-10-2-1-3-1-3-4 0-5-5-9-10-10-3 0-4-2-4-4-8-22-15-45-22-68-1-1-1-2 0-3 4-5 4-9 2-14-1-1 0-3 0-4 10-15 20-30 29-45 1-1 2-1 2-1z m-91 129c-2-3-3-4-4-6-4-7-9-15-14-22-14-22-28-44-42-65-1-1-1-3-1-4 1 0 2-1 4 0 8 1 15 3 23 5 23 6 46 12 69 17 2 1 3 1 3 4 0 1 1 3 2 4 2 2 1 3 0 5-8 12-16 24-24 37-5 8-10 16-16 25z m-4 4c-5 1-9 1-13 2-17 4-34 8-51 12-1 0-3 0-4-1-2-2-3-4-4-5-1-2-2-3-2-5 3-31 6-63 9-95 0-2 1-3 2-4 0 1 2 1 2 3 14 20 28 41 41 62 7 10 13 20 20 31z m8-1c8-13 16-24 24-36 6-9 11-18 17-27 1-1 3-2 5-2 1 0 2 2 3 3 1 4 3 9 4 13 6 19 12 37 18 55 1 4-3 9-8 8-13-3-26-6-39-9-8-1-15-3-24-5z m-1 5c1 1 1 1 2 1 21 4 42 9 64 14 1 0 2 2 2 3 1 1-1 2-2 3-19 15-39 29-59 43-1 1-2 2-5 1-2-1-3-2-3-5 1-19 1-38 1-57 0-1 0-1 0-3z m-6 1c0 2 0 3 0 5 0 18 0 35 0 53 0 3 0 4-2 6-3 2-5 0-6-2-13-9-26-18-39-27-7-6-15-11-22-17 0-4 3-3 5-4 9-2 18-4 27-6 12-3 24-5 37-8z"/>
<glyph glyph-name="link" unicode="&#57357;" d="M138 50c-3 1-7 1-10 2-59 14-81 87-39 132 1 1 3 3 4 4 58 58 115 115 173 173 14 13 30 20 49 18 28-2 51-29 47-58-2-15-8-27-19-38-45-45-90-90-134-135-5-4-9-6-15-4-9 3-12 13-6 20 1 2 2 3 3 4 45 44 89 89 134 133 7 7 11 15 11 24 2 20-17 34-37 27-5-2-10-5-14-9-58-58-117-116-175-175-28-28-19-75 17-89 20-7 38-3 54 9 2 2 4 4 6 6 69 69 138 138 208 207 17 17 25 37 24 62-2 35-28 65-63 72-28 5-52-3-72-23-53-52-105-105-158-158-4-3-8-7-11-11-7-8-16-6-20-2-5 4-6 13 1 20 57 57 113 113 170 170 37 36 92 41 134 12 52-35 60-110 17-156-1-1-1-1-2-2-71-70-141-141-212-212-13-13-29-20-47-22-1 0-1-1-2-1-6 0-11 0-16 0z"/>
<glyph glyph-name="cost" unicode="&#57358;" d="M256 479c94 0 174-59 206-141l21 0c-34 93-123 159-227 159-104 0-193-66-227-159l21 0c32 82 112 141 206 141z m240-198l-20 0c1-8 2-16 2-24 0-122-100-222-222-222-122 0-222 100-222 222 0 8 1 16 2 24l-20 0c-1-9-1-17-1-25 0-133 108-241 241-241 133 0 241 108 241 241 0 8 0 16-1 25z m-283-124c15-15 35-22 61-22 7 0 14 0 20 1 5 0 9 1 13 2l-2 16c-3 0-7-1-10-2-7-1-14-1-21-1-18 0-33 6-44 18-10 11-15 25-15 40l0 9 80 0 0 17-80 0 0 40 80 0 0 16-80 0 0 12c0 15 5 29 15 41 11 13 25 19 44 19 7 0 14 0 21-2 3 0 7-1 10-2l1 17c-4 1-9 1-13 2-6 1-13 1-19 1-26 0-46-7-61-23-16-15-23-33-23-54l0-11-26 0 0-16 26 0 0-40-26 0 0-17 17 0 9 0 0-9c0-20 7-37 23-52z"/>
<glyph glyph-name="dimming" unicode="&#57359;" d="M256 479c94 0 174-59 206-141l21 0c-34 93-123 159-227 159-104 0-193-66-227-159l21 0c32 82 112 141 206 141z m240-198l-20 0c1-8 2-16 2-24 0-122-100-222-222-222-122 0-222 100-222 222 0 8 1 16 2 24l-20 0c-1-9-1-17-1-25 0-133 108-241 241-241 133 0 241 108 241 241 0 8 0 16-1 25z m-407-5c40 207 310 178 334-14-21 0-85 0-96 0-13 138-189 150-238 14z"/>
<glyph glyph-name="list" unicode="&#57360;" d="M171 427l293 0 0-98-293 0z m0-342l0 98 293 0 0-98z m0 122l0 98 293 0 0-98z m-123 122l0 98 99 0 0-98-99 0z m0-244l0 98 99 0 0-98z m0 122l0 98 99 0 0-98z"/>
<glyph glyph-name="tiles" unicode="&#57361;" d="M85 85l0 155 155 0 0-155z m187 0l0 155 155 0 0-155z m0 186l0 156 155 0 0-156-155 0z m-187 0l0 156 155 0 0-156-155 0z"/>
<glyph glyph-name="temperature" unicode="&#57362;" d="M256 479c94 0 174-59 206-141l21 0c-34 93-123 159-227 159-104 0-193-66-227-159l21 0c32 82 112 141 206 141z m240-198l-20 0c1-8 2-16 2-24 0-122-100-222-222-222-122 0-222 100-222 222 0 8 1 16 2 24l-20 0c-1-9-1-17-1-25 0-133 108-241 241-241 133 0 241 108 241 241 0 8 0 16-1 25z m-285-140c4-13 13-22 27-27 3-1 7-3 10-4 5 0 11 0 16 0 1 1 3 2 4 2 19 4 33 20 36 37 3 17-2 33-15 45-3 3-4 5-4 8 0 55 0 109 0 164 0 5 0 10-1 14-3 17-25 28-41 19-11-7-16-17-16-29 0-56 0-111 0-167 0-4-1-6-4-9-15-15-19-33-12-53z m22 49c2 2 3 4 3 7 0 58 0 115 0 173 0 8 2 15 9 19 12 8 27 1 29-10 1-5 2-9 2-13 0-28 0-55 0-82 0-29 0-58 0-87 0-2 1-5 3-6 12-10 18-23 16-39-2-13-10-22-21-28-7-4-14-6-21-5-15 2-28 11-34 26-6 18 0 35 14 45z m37-57c14 8 19 24 12 39-3 6-8 10-14 13-1 1-2 3-2 4-1 8-1 16-1 24l0 0c0 8 0 16 0 23 0 2 0 4-1 5-2 4-6 5-11 4-4-1-6-3-6-8 0-15-1-30 0-45 0-5-2-7-5-9-16-7-19-30-9-43 9-11 26-13 37-7z"/>
<glyph glyph-name="mode-auto" unicode="&#57363;" d="M75 230l-10-34-22 0 38 120 28 0 38-120-23 0-11 34z m34 17l-9 29c-2 7-4 15-6 22l0 0c-2-7-4-15-6-22l-9-29z m71 69l0-70c0-23 9-34 24-34 16 0 25 11 25 34l0 70 22 0 0-68c0-37-19-53-48-53-27 0-45 15-45 52l0 69z m119-19l-34 0 0 19 90 0 0-19-35 0 0-101-21 0z m170-40c0-40-24-62-57-62-33 0-55 25-55 60 0 37 23 62 57 62 35 0 55-26 55-60z m-89-2c0-24 13-43 33-43 21 0 33 19 33 44 0 23-11 44-33 44-21 0-33-20-33-45z"/>
<glyph glyph-name="electricity" unicode="&#57364;" d="M256 479c94 0 174-59 206-141l21 0c-34 93-123 159-227 159-104 0-193-66-227-159l21 0c32 82 112 141 206 141z m240-198l-20 0c1-8 2-16 2-24 0-122-100-222-222-222-122 0-222 100-222 222 0 8 1 16 2 24l-20 0c-1-9-1-17-1-25 0-133 108-241 241-241 133 0 241 108 241 241 0 8 0 16-1 25z m-305 107l0-150 46 0 0-114 83 142-61 0 62 122z"/>
<glyph glyph-name="electricity-excess" unicode="&#57365;" d="M256 479c94 0 174-59 206-141l21 0c-34 93-123 159-227 159-104 0-193-66-227-159l21 0c32 82 112 141 206 141z m240-198l-20 0c1-8 2-16 2-24 0-122-100-222-222-222-122 0-222 100-222 222 0 8 1 16 2 24l-20 0c-1-9-1-17-1-25 0-133 108-241 241-241 133 0 241 108 241 241 0 8 0 16-1 25z m-338-13l12 12-9 10-12-13z m-27 64l21 0 0-14-21 0z m149 0l-21 0 0-9c7 0 13-1 21-1z m-54-7c6-1 13-1 20-1 0 0 0 1 0 1 0 22-18 40-40 40-23 0-41-18-41-40 0-16 9-29 22-36 4 8 9 15 13 23 6 9 15 14 26 13z m27 57l9-10-12-12-9 10z m-54 17l13 0 0-20-13 0z m-41-17l12-12-9-10-12 12z m231-68c-38 3-76 5-109 8 0 0 0 0 0 0l0-4-21 0 0 5c-4 0-9 0-13 1 0-4-1-7-2-10 3-1 6-1 9-2-6-11-12-22-19-33-1-2-5-4-7-3-11 1-22 4-33 6 1 1 1 3 2 4-3 1-6 2-9 3-17-28-35-56-52-84-6-11-4-18 7-23 50-23 100-46 150-69 16-7 25-3 33 12 11 23 22 47 33 70 15 32 30 63 45 95 7 16 2 23-14 24z m-139-25l2-1c3 7 7 13 11 19 1 3 6 5 9 4 14 0 27-2 44-4-8-15-15-28-22-42-1-1-6-2-8-2-10 2-20 5-31 7l-2-2-3 3c-2 1-5 1-7 2 1 1 1 2 2 3l-4 4z m-8-26c15 2 30-5 48-8-8-15-13-27-20-38-2-3-8-5-12-4-11 2-21 6-32 9-7 2-8 6-4 12 0 1 1 2 1 4 7 8 12 24 19 25z m-57 7c2 3 7 5 10 4 6 0 11-2 17-3l0 0 0 0c5-1 10-2 16-4-6-12-12-23-18-33-1-2-6-4-9-4-11 3-21 7-34 11 7 11 12 20 18 29z m-9-87c-11 4-22 9-35 15 7 12 13 22 19 31 2 3 8 4 12 3 9-3 19-6 32-10-8-14-15-26-21-37-1-2-5-3-7-2z m58-25c-14 6-28 12-44 19 7 12 13 23 19 34 2 3 7 6 9 5 15-3 29-8 45-13-7-15-14-28-20-41-2-2-7-5-9-4z m91 15c-6-13-12-25-19-38-2-2-8-4-11-3-12 4-24 10-36 16-3 1-6 7-5 10 5 11 11 23 18 34 1 3 5 4 8 6 15-5 29-10 42-15 2-1 4-7 3-10z m10 22c-1-2-6-4-9-3-13 4-26 7-39 12-2 1-3 7-4 11-1 1 1 3 2 4 19 38 19 38 72 21-7-16-15-31-22-45z m29 60c-1-3-6-5-8-4-16 2-32 5-50 9 8 15 14 29 21 42 1 2 5 4 7 4 17-1 34-3 53-5-8-17-15-32-23-46z m-112 33l-2 1-9-9 4-4c2 4 4 8 7 12z m28 30l0 4c-8 0-14 1-21 1l0-5z m-68-47l0 0 0 0z m32 43c1 3 2 6 2 10-7 0-14 0-20 1-11 1-20-4-26-13-4-8-9-15-13-23 3-1 6-2 9-3 11 28 20 34 48 28z m9-46l2 2c-2 0-3 1-5 1z"/>
<glyph glyph-name="mode-cool" unicode="&#57366;" d="M240 228c-11-6-21-12-31-18-13-7-26-15-39-23-3-1-4-2-4-5-7-25-14-50-21-75-2-8-9-13-17-12-8 1-14 7-14 15 0 2 0 4 0 6 4 14 8 29 12 43 0 1 0 2 1 4-9-5-17-10-25-15-6-3-12-7-19-10-8-5-18-3-22 5-5 8-2 17 6 22 13 8 27 16 40 24 1 0 2 1 4 2-9 2-16 4-24 6-8 2-16 4-24 7-9 2-14 11-11 19 2 9 11 14 20 12 25-7 50-14 76-21 1 0 3 0 4 1 24 13 47 27 70 40 0 0 1 0 1 1-3 2-7 4-11 7-19 11-39 22-59 34-2 1-4 1-6 0-25-6-50-13-75-20-9-2-18 3-20 12-3 8 2 17 12 19 14 4 28 8 43 12 1 0 2 1 3 1-1 1-2 2-3 2-13 8-27 16-40 24-10 5-11 18-3 26 5 5 13 5 20 1 13-7 26-15 39-22 1-1 2-2 4-3-1 3-2 6-2 8-4 13-7 26-11 39-2 9 2 17 9 20 8 3 16 1 20-6 1-2 2-4 2-5 7-25 14-51 21-76 0-1 1-3 3-4 23-13 46-27 69-40 0 0 1 0 2-1 0 1 0 3 0 4 0 26 0 52 0 78 0 1-1 4-2 5-19 18-37 36-55 54-5 5-7 10-5 17 3 12 18 16 27 7 10-9 19-19 29-29 2-2 3-4 5-5 0 0 0 0 1 0 0 1 0 3 0 4 0 15 0 30 0 46 0 6 2 11 8 14 6 3 11 3 17 0 5-3 7-9 7-15 0-15 0-30 0-45 0-1 0-3 0-4 2 1 3 2 4 3 10 10 20 20 30 30 8 8 19 8 25 0 5-6 5-15-1-21-11-12-23-23-34-34-7-8-15-15-22-23-1-1-2-2-2-3 0-27 0-54 0-81 0-1 0-1 0-2 4 2 7 4 11 6 20 12 40 23 60 35 1 1 3 3 3 4 7 25 14 51 21 76 2 7 8 12 15 12 11 0 19-10 16-20-4-15-8-30-12-44 0-1 0-2-1-4 9 5 17 10 25 14 7 4 13 8 20 12 7 3 14 2 19-3 5-6 6-14 2-20-2-2-4-5-7-6-13-8-26-15-39-23-1 0-2-1-4-2 8-2 16-4 23-6 8-2 16-4 25-7 9-2 14-11 11-19-2-9-10-14-20-12-25 7-50 14-76 20-1 1-3 1-4 0-24-13-47-27-70-40 0 0-1-1-2-1 7-4 14-8 20-12 17-9 34-19 51-29 2-1 4-1 6-1 25 7 50 14 75 20 9 3 18-2 20-11 3-9-2-17-12-20-14-4-28-7-43-11-1 0-2-1-3-1 1-1 2-2 3-2 13-8 27-16 41-24 5-3 8-9 7-15 0-7-4-12-11-14-5-2-9-1-14 2-13 7-26 15-39 22-1 1-2 2-4 3 1-4 2-6 2-9 4-12 7-25 11-38 2-10-3-18-11-21-9-2-18 3-21 13-6 25-13 49-20 74 0 3-1 4-3 5-23 13-45 26-68 39-1 1-1 1-3 2 0-2 0-3 0-4 0-26 0-52 0-78 0-2 1-3 2-5 19-18 37-37 55-55 5-5 7-11 5-17-3-7-7-10-14-11-5-1-10 1-13 5-11 10-21 21-32 31 0 1-1 2-2 3 0 0 0 0-1 0 0-1 0-3 0-4 0-15 0-30 0-45 0-9-5-16-13-17-10-2-19 5-19 16 0 16 0 31 0 47 0 1 0 2-1 3-5-5-9-9-14-14-7-7-13-14-21-21-8-8-23-4-26 8-2 6 0 12 5 17 11 11 22 22 33 33 7 7 15 14 22 22 1 0 2 2 2 3 0 27 0 54 0 81 0 1 0 1 0 2z"/>
<glyph glyph-name="unlink" unicode="&#57367;" d="M458 367c-1-6-2-12-3-17-5-14-12-26-22-36-32-31-63-63-95-95-4-4-8-6-14-4-5 2-8 5-8 10 0 3 1 7 2 10 1 1 2 2 4 4 31 31 62 62 93 93 20 20 24 49 9 73-18 31-62 38-88 13-25-24-48-49-73-73-1-1-2-2-3-4-6-4-13-3-17 1-5 5-5 12-1 17 1 1 2 3 3 4 23 22 45 45 68 68 14 15 32 24 53 27 0 0 1 0 2 0 4 0 9 0 14 0 1 0 2 0 4-1 33-5 55-23 67-54 3-6 4-14 5-21 0-5 0-10 0-15z m-404-222c1 6 2 12 3 17 4 14 12 25 22 35 32 32 63 64 95 96 4 4 8 5 14 4 5-2 8-5 8-10 0-4-1-7-2-10-1-1-2-3-4-4-31-31-62-62-93-93-19-19-23-45-12-68 16-35 63-44 91-18 24 24 48 48 72 72 3 3 6 5 10 6 5 0 9-2 12-7 2-5 2-9-1-14-1-1-2-2-3-3-23-23-46-46-69-69-21-20-45-29-74-24-32 5-59 30-67 63-1 4-2 8-2 12 0 5 0 10 0 15z m24 186c1-1 4-1 6-2 14-4 28-8 42-11 2-1 4-1 5-2 5-3 8-9 7-15-2-6-8-10-14-9-14 3-27 7-41 11-4 1-8 2-11 4-6 2-9 8-8 14 2 6 7 10 14 10z m224-189c6 0 11-3 12-9 5-17 9-34 12-51 2-7-2-13-9-15-6-1-13 2-15 9-3 10-5 20-7 29-2 7-3 14-5 21-2 8 4 16 12 16z m-95 315c6 0 12-4 13-10 1-10 2-21 4-31 0-5 1-11 2-17 0-7-4-13-11-14-7-1-13 3-14 10-3 16-5 32-6 49-1 7 5 13 12 13z m191-231c8-1 17-2 26-4 7-1 15-2 22-3 7-2 11-8 10-15-1-6-7-11-13-10-16 2-33 5-49 7-6 2-10 8-9 14 0 7 6 11 13 11z m1-92c0-6-2-10-7-12-5-3-10-2-14 1-8 9-16 18-23 28-4 5-3 12 2 16 5 4 12 5 16 0 9-9 16-18 24-27 1-2 2-5 2-6z m-259 267c4 0 7-2 10-5 6-8 13-15 19-23 4-6 4-14-2-18-5-5-13-4-18 2-6 7-13 15-19 23-3 4-4 9-1 14 2 4 6 6 11 7z"/>
<glyph glyph-name="upload" unicode="&#57368;" d="M210 327c-18 0-35 0-53 0-5 0-11 0-16 0-3 0-6 1-8 2-4 1-6 5-4 9 2 2 4 5 6 7 40 40 80 80 119 120 1 1 1 1 2 1 1-1 2-2 3-3 39-38 78-77 116-116 3-2 6-6 8-9 2-5 0-8-4-9-3-2-7-2-11-2-19 0-39 0-59 0-2 0-4 0-7 0 0-3 0-5 0-8 0-40 0-79 0-119 0-22-13-40-33-46-30-9-58 13-59 46 0 40 0 79 0 119 0 3 0 5 0 8z m46-281c-59 0-119 0-179 0-18 0-31 10-35 27-3 15 5 32 20 38 5 2 11 3 17 3 80 0 160 0 240 0 38 0 77 0 115 0 20 0 35-13 36-32 2-20-14-36-34-36-20-1-41 0-61 0-39 0-79 0-119 0z"/>
<glyph glyph-name="mode-dry" unicode="&#57369;" d="M163 323c8-15 17-32 27-48 13-22 28-43 41-65 10-17 17-35 20-54 7-52-31-98-83-100-56-2-97 39-94 93 1 23 11 44 22 63 10 16 20 31 29 46 13 22 26 45 38 65z m-12-245c5 0 10 1 10 8 1 6-4 7-9 8-24 2-40 18-43 42 0 6-2 10-8 10-6 0-7-5-7-11 0-29 27-56 57-57z m199 378c8-14 17-31 27-48 13-22 27-43 40-65 10-16 17-34 20-54 8-52-30-98-83-100-55-2-97 39-93 93 1 23 10 44 22 64 9 15 19 30 29 45 13 23 26 45 38 65z m-12-244c5-1 10 0 10 7 0 6-4 8-10 8-24 2-40 18-42 43 0 5-2 9-8 9-6 0-7-5-7-10 0-30 27-57 57-57z"/>
<glyph glyph-name="factor" unicode="&#57370;" d="M490 351c0 75-62 137-137 137-76 0-137-62-137-137 0-26 7-50 19-70l-52-40c-17 17-41 28-67 28-52 0-94-42-94-94 0-52 42-94 94-94 37 0 69 21 85 52l100-35c0-4-1-7-1-11 0-35 29-63 64-63 35 0 63 28 63 63 0 34-27 62-60 64l-3 63c71 6 126 65 126 137z m-283-202c2 8 4 17 4 26 0 19-7 38-17 53l50 39c24-31 61-52 103-53l3-65c-20-4-35-17-44-35z"/>
<glyph glyph-name="fanspeed-auto" unicode="&#57371;" d="M256 479c94 0 174-59 206-141l21 0c-34 93-123 159-227 159-104 0-193-66-227-159l21 0c32 82 112 141 206 141z m240-198l-20 0c1-8 2-16 2-24 0-122-100-222-222-222-122 0-222 100-222 222 0 8 1 16 2 24l-20 0c-1-9-1-17-1-25 0-133 108-241 241-241 133 0 241 108 241 241 0 8 0 16-1 25z m-386-46l-8-27-18 0 31 96 22 0 31-96-18 0-9 27z m28 13l-8 24c-2 6-3 12-5 18l0 0c-1-6-3-12-4-18l-8-24z m57 56l0-56c0-19 7-27 19-27 13 0 20 8 20 27l0 56 18 0 0-55c0-29-15-43-38-43-23 0-37 13-37 43l0 55z m95-15l-27 0 0 15 73 0 0-15-28 0 0-81-18 0 0 81z m138-32c0-32-20-51-46-51-27 0-44 21-44 49 0 30 18 51 45 51 28 0 45-22 45-49z m-72-1c0-20 10-35 27-35 17 0 26 15 26 35 0 18-9 35-26 35-17 0-27-16-27-35z"/>
<glyph glyph-name="mode-fan" unicode="&#57372;" d="M249 308c-11-7-21-13-32-20-32 31-63 63-71 110-4 22 3 42 19 58 19 20 43 33 70 39 6 2 12 2 17 1 34-5 58-58 40-87-2-4-5-9-9-13-23-25-36-54-34-88z m-24-96c-22-26-45-50-76-66-39-20-74-14-101 21-13 16-21 36-30 55-2 4-2 10-2 15 4 34 55 61 85 45 8-4 15-9 22-15 23-16 48-25 75-23 7 1 10-1 12-7 4-9 10-16 15-25z m90 54c-9 12-17 23-25 35 25 28 52 57 91 70 26 8 49 4 70-14 21-18 34-40 43-66 5-17 2-32-12-44-7-7-16-14-24-19-17-9-33-9-50 1-3 2-6 4-9 6-25 20-53 34-84 31z m-51-68c14 7 26 13 39 20 27-27 54-56 64-97 5-24-1-46-18-64-19-21-43-33-70-40-6-2-13-2-19-1-34 7-56 59-38 88 2 3 4 7 7 10 22 25 37 52 35 84z m-6 77c11 1 20-9 21-19 0-11-9-20-20-20-11 0-20 8-20 19 0 11 9 20 19 20z"/>
<glyph glyph-name="variable" unicode="&#57373;" d="M365 95c4 11 7 22 11 34-6 0-11 0-17 0-15 1-31 2-47 5-22 4-39 17-54 32-14 13-27 27-40 40-1 1-2 3-2 3-9-8-16-15-24-23-11-10-21-20-32-30-21-19-47-26-75-26-19 0-38-1-58-1-1 0-2 0-3 0 0 22 0 43 0 65 4 0 9 0 13 0 16 1 32 1 47 1 16 0 30 4 41 16 14 14 28 28 42 42 1 1 1 2 3 4-17 16-34 33-51 50-11 9-24 10-37 10-19 0-37 1-55 1-1 0-2 0-3 0 0 22 0 43 0 65 10 0 20 0 30 0 16-1 33-1 50-2 22-2 41-11 57-26 17-16 34-33 51-50 1-1 1-2 2-3 5 6 11 11 16 16 16 15 31 30 48 44 15 13 34 18 53 20 13 0 26 0 39 1 2 0 4 0 6 0-3 11-7 22-11 34 41-22 82-44 123-67-41-22-81-44-123-66 4 11 8 22 11 34-17 0-35 1-51-4-9-2-16-8-23-14-14-14-29-28-44-43 6-6 11-11 16-16 10-10 20-20 30-30 9-9 20-15 34-16 12 0 25 0 38 0-3 11-7 21-11 33 42-22 82-44 123-66-2-1-3-2-5-3-37-20-75-41-113-61-1-1-3-2-4-3 0 0-1 0-1 0z"/>
<glyph glyph-name="mode-heat" unicode="&#57374;" d="M502 252c-3-7-8-9-16-9-20 0-39 0-59 0-5 0-9 1-12 6-4 8 0 17 9 18 3 0 5 0 8 0 18 0 36 0 54 0 7 0 13-2 16-9 0-2 0-4 0-6z m-492 6c3 7 9 9 16 9 17 0 33 0 49 0 4 0 8-1 11-4 3-4 4-8 2-12-2-5-5-8-10-8-7 0-14 0-22 0-10 0-20 0-30 0-8-1-13 2-16 9 0 2 0 4 0 6z m251-124c-67 0-122 55-122 121 0 67 55 122 122 122 67-1 121-55 121-122 0-67-55-122-121-121z m-128 240c-1-6-3-10-8-12-5-2-10-1-14 3-4 4-8 8-12 13-10 10-20 19-30 30-6 6-6 14 1 19 4 3 10 3 14-1 7-6 14-13 20-19 8-8 17-17 24-25 2-2 3-5 5-8z m305 43c-2-4-3-7-5-10-14-14-28-28-42-42-5-5-13-5-18 0-4 4-4 12 0 17 15 15 29 29 43 43 4 4 9 5 14 3 5-2 7-6 7-11 1 0 1 0 1 0z m-364-320c1 2 3 5 5 8 14 14 28 28 42 41 5 6 13 6 18 1 4-5 4-12-1-18-14-13-28-27-42-41-5-5-10-6-15-4-4 2-7 6-7 13z m319 54c2-1 5-2 7-4 15-14 29-29 43-43 5-5 5-12 1-17-5-5-12-6-17-1-8 8-16 16-24 24-7 7-14 13-20 20-4 4-4 10-2 14 2 5 6 6 12 7z m-154-99c0 8 0 16 0 24 0 7 5 13 12 13 7 0 12-5 12-13 0-16 0-33 0-49 0-8-5-13-12-13-7 0-12 6-12 13 0 8 0 17 0 25z m10 408c0 9-1 17 0 26 0 8 7 13 15 12 5-2 9-7 9-14 0-13 0-27 0-40 0-4 0-7 0-10-2-9-12-14-19-8-4 2-6 6-6 10 1 4 0 8 0 12 0 4 0 8 0 12l1 0z"/>
<glyph glyph-name="water" unicode="&#57375;" d="M256 479c94 0 174-59 206-141l21 0c-34 93-123 159-227 159-104 0-193-66-227-159l21 0c32 82 112 141 206 141z m240-198l-20 0c1-8 2-16 2-24 0-122-100-222-222-222-122 0-222 100-222 222 0 8 1 16 2 24l-20 0c-1-9-1-17-1-25 0-133 108-241 241-241 133 0 241 108 241 241 0 8 0 16-1 25z m-240 85c-5-11-11-22-17-33-6-11-13-22-20-32-6-9-12-18-16-27-7-13-13-26-17-40-10-38 13-77 51-86 41-9 80 14 89 53 5 19 2 37-7 54-9 18-20 36-31 53-11 19-25 37-32 58z m-10-201c-24 0-46 22-46 46 0 4 1 8 6 8 5 1 6-3 7-7 1-20 14-33 34-35 4 0 8-2 8-6 0-6-4-7-9-6z"/>
<glyph glyph-name="fanspeed-high" unicode="&#57376;" d="M256 479c94 0 174-59 206-141l21 0c-34 93-123 159-227 159-104 0-193-66-227-159l21 0c32 82 112 141 206 141z m240-198l-20 0c1-8 2-16 2-24 0-122-100-222-222-222-122 0-222 100-222 222 0 8 1 16 2 24l-20 0c-1-9-1-17-1-25 0-133 108-241 241-241 133 0 241 108 241 241 0 8 0 16-1 25z m-245 16c-9-6-17-10-26-16-24 24-48 48-55 85-2 17 3 32 15 45 15 16 34 26 55 31 4 1 9 1 13 0 26-4 45-44 31-67-2-4-4-7-7-10-18-20-28-42-26-68z m-19-75c-17-20-35-39-59-51-31-16-57-11-78 16-10 12-16 28-24 42-1 4-1 9-1 13 3 26 42 47 65 34 7-3 12-7 18-11 17-13 37-20 58-18 5 0 8-1 10-6 2-7 7-12 11-19z m70 42c-7 9-13 18-20 27 20 22 41 44 71 54 20 7 38 3 54-11 16-14 27-31 33-51 4-13 2-25-8-34-6-5-13-11-20-14-12-8-25-8-38 0-2 2-5 3-7 5-20 16-41 26-65 24z m-40-53c11 6 20 10 30 16 21-21 42-44 50-76 4-19-1-35-14-49-15-16-33-26-54-32-5-1-10-1-15 0-26 5-44 46-30 68 2 2 4 5 6 8 17 19 29 40 27 65z m-4 60c8 0 15-7 16-15 0-8-7-15-16-16-8 0-15 7-15 15 0 9 6 16 15 16z"/>
<glyph glyph-name="fanspeed-low" unicode="&#57377;" d="M256 479c94 0 174-59 206-141l21 0c-34 93-123 159-227 159-104 0-193-66-227-159l21 0c32 82 112 141 206 141z m240-198l-20 0c1-8 2-16 2-24 0-122-100-222-222-222-122 0-222 100-222 222 0 8 1 16 2 24l-20 0c-1-9-1-17-1-25 0-133 108-241 241-241 133 0 241 108 241 241 0 8 0 16-1 25z m-242-6c-5-2-8-5-12-7-12 11-23 22-26 40-2 8 1 15 7 21 7 7 16 12 25 14 2 1 5 1 7 1 12-2 21-21 14-32-1-2-2-3-3-5-8-9-13-20-12-32z m-9-35c-8-9-17-18-28-24-14-7-27-5-37 7-5 6-7 14-11 20-1 2-1 4 0 6 1 12 19 22 30 17 3-2 6-4 9-6 8-6 17-9 27-8 2 0 3-1 4-3 2-3 4-6 6-9z m32 20c-3 4-6 8-9 12 9 11 19 21 33 26 10 3 19 1 26-5 8-7 13-15 16-24 2-6 0-12-4-16-3-3-6-5-9-7-6-3-13-4-18 0-2 1-3 2-4 2-9 8-19 13-31 12z m-18-25c5 2 9 5 14 7 10-10 20-20 23-35 2-9 0-17-6-24-7-7-16-12-26-14-2-1-4-1-7-1-12 3-20 22-14 32 1 2 2 3 3 4 8 9 14 19 13 31z m-2 28c4 0 7-3 7-7 0-4-3-7-7-7-4 0-7 3-7 7 0 4 3 7 7 7z"/>
<glyph glyph-name="occupancy" unicode="&#57378;" d="M256 479c94 0 174-59 206-141l21 0c-34 93-123 159-227 159-104 0-193-66-227-159l21 0c32 82 112 141 206 141z m240-198l-20 0c1-8 2-16 2-24 0-122-100-222-222-222-122 0-222 100-222 222 0 8 1 16 2 24l-20 0c-1-9-1-17-1-25 0-133 108-241 241-241 133 0 241 108 241 241 0 8 0 16-1 25z m-185-46c6 1 8 7 6 13-11 29-21 57-31 86-2 5-6 7-11 7-12 0-25 0-37 0-6 0-10-2-12-8-10-28-20-56-31-84-2-7 0-13 6-14 5-2 10 1 13 7 5 14 10 27 15 41 1 1 2 3 3 4 0-18 0-36-3-53-5-34-12-68-18-103-2-11 4-17 15-14 8 1 11 6 12 13 6 28 11 56 17 84 1 0 1 0 2 0 3-16 6-32 9-48 3-13 5-26 8-38 2-9 10-13 19-12 7 2 9 6 7 16-1 8-2 16-3 23-6 38-16 76-17 114 0 6 0 12-1 18 8-15 14-30 20-45 2-6 6-9 12-7z m-55 112c14 0 24 11 24 25 0 13-11 24-24 24-13 0-24-11-24-25 0-13 11-25 24-24z"/>
<glyph glyph-name="parking-lowdemand-hour" unicode="&#57379;" d="M460 271c11 0 24 0 37 0-21-35-42-70-63-105-21 35-41 70-63 105 14 0 28 0 42 0-2 9-3 17-5 26-16 70-71 121-143 133-93 15-183-47-202-140-19-94 44-188 139-207 12-2 24-2 35-4 13-1 20-10 19-24-1-13-10-22-23-22-105 2-195 78-214 182-23 120 57 238 177 260 117 22 230-52 257-168 3-11 4-24 7-36z m-179 36c0-20-1-40 0-60 0-7-2-13-7-18-22-21-43-42-64-63-8-9-22-9-30 0-8 8-8 22 0 31 18 18 36 35 54 53 2 3 3 5 3 8 0 37 0 74 0 110 0 6 1 12 5 16 6 7 17 9 25 6 8-3 13-11 13-20 1-21 1-42 1-63z"/>
<glyph glyph-name="fanspeed-middle" unicode="&#57380;" d="M256 479c94 0 174-59 206-141l21 0c-34 93-123 159-227 159-104 0-193-66-227-159l21 0c32 82 112 141 206 141z m240-198l-20 0c1-8 2-16 2-24 0-122-100-222-222-222-122 0-222 100-222 222 0 8 1 16 2 24l-20 0c-1-9-1-17-1-25 0-133 108-241 241-241 133 0 241 108 241 241 0 8 0 16-1 25z m-244 5c-6-4-12-7-19-11-18 17-36 35-40 62-2 13 2 24 11 34 11 11 24 19 40 22 3 1 7 1 10 1 19-3 33-33 23-50-2-3-3-5-6-7-12-15-20-32-19-51z m-14-55c-12-15-26-29-43-38-23-12-43-8-58 12-8 9-12 21-18 31-1 3-1 6 0 9 2 20 31 35 48 26 4-2 9-5 13-9 13-9 27-14 43-13 3 0 5 0 7-4 2-5 5-9 8-14z m52 31c-5 7-10 13-15 20 15 16 30 32 52 40 15 5 29 2 41-8 12-10 20-23 24-38 3-9 1-18-6-25-5-4-9-8-14-11-10-5-19-5-29 1-1 1-3 2-5 3-14 12-30 19-48 18z m-29-39c7 4 14 7 22 11 15-15 31-32 36-56 4-14 0-26-10-36-11-12-24-19-40-23-3-1-7-1-11-1-19 4-32 34-22 51 2 2 3 4 4 5 13 15 22 30 21 49z m-4 44c6 0 12-5 12-11 0-6-5-11-11-12-7 0-12 5-12 11 0 7 5 12 11 12z"/>
<glyph glyph-name="winde" unicode="&#57381;" d="M254 14c-2 0-5 1-7 2-7 4-10 10-10 17 0 3 0 6 0 9 0 1 0 1 0 2-4 0-8 1-11 1-17 2-34 7-50 14-22 9-43 21-61 37-24 22-42 47-55 77-2 5-5 11-6 17-3 11 6 22 17 23 9 1 17-4 20-14 4-9 8-19 13-28 13-23 30-41 50-57 18-13 38-22 60-27 7-2 15-3 23-5 0 1 0 2 0 3 0 5 0 10 0 16 0 10 7 18 17 19 12 1 21-8 21-19 0-6 0-11 0-16 0-1 0-2 0-2 79 7 146 72 154 154 0 0-1 0-1 0-6 0-11 0-17 0-10 0-18 8-19 18-1 11 8 20 19 20 6 0 11 0 17 0 0 0 1 0 1 0-6 71-64 144-154 154 0 0 0-1 0-1 0-6 0-11 0-17 0-10-7-18-18-19-11-1-20 8-20 19 0 6 0 11 0 16 0 1 0 2 0 2-7-1-13-2-19-3-30-7-57-20-79-41-22-20-38-44-47-72-3-6-7-11-13-13-11-4-23 3-25 15-1 4-1 7 1 11 12 33 31 63 57 87 26 24 57 41 92 50 10 2 21 4 31 5 1 0 1 0 2 0 0 3 0 6 0 9 0 3 0 7 1 10 3 6 8 9 14 11 1 0 1 0 2 0 1 0 3 0 4 0 0 0 1 0 1 0 7-1 12-5 15-11 1-4 1-8 1-12 0-2 0-4 0-7 52-5 96-25 132-61 36-37 56-81 61-132 4 0 8 0 11 0 7 0 13-3 17-9 1-3 1-5 2-8 0-1 0-2 0-4 0 0 0 0 0-1-1-7-5-12-12-15-3-1-6-1-10-1-2 0-5 0-8 0-5-52-25-96-61-132-37-36-81-56-132-61 0-4 0-7 0-11 0-7-3-13-9-17-3-1-5-1-8-2-1 0-2 0-4 0z m-66 319c-4-7-7-13-11-20-9-19-19-37-28-56-1-1-1-1 0-2 12-25 25-50 38-74 0-1 1-2 1-2-58 25-116 51-174 77 58 26 116 52 174 77 0 0 0 0 0 0z"/>
<glyph glyph-name="windn" unicode="&#57382;" d="M498 254c0-2-1-5-2-7-4-7-10-10-17-10-3 0-6 0-9 0-1 0-1 0-2 0 0-4-1-8-1-11-2-17-7-34-14-50-9-22-21-43-37-61-22-24-47-42-77-55-5-2-11-5-17-6-11-3-22 6-23 17-1 9 4 17 14 20 9 4 19 8 28 13 23 13 41 30 57 50 13 18 22 38 27 60 2 7 3 15 5 23-1 0-2 0-3 0-5 0-10 0-16 0-10 0-18 7-19 17-1 12 8 21 19 21 6 0 11 0 16 0 1 0 2 0 2 0-7 79-72 146-154 154 0 0 0-1 0-1 0-6 0-11 0-17 0-10-8-18-18-19-11-1-20 8-20 19 0 6 0 11 0 17 0 0 0 1 0 1-71-6-144-64-154-154 0 0 1 0 1 0 6 0 11 0 17 0 10 0 18-7 19-18 1-11-8-20-19-20-6 0-11 0-16 0-1 0-2 0-2 0 1-7 2-13 3-19 7-30 20-57 41-79 20-22 44-38 72-47 6-3 11-7 13-13 4-11-3-23-15-25-4-1-7-1-11 1-33 12-63 31-87 57-24 26-41 57-50 92-2 10-4 21-5 31 0 1 0 1 0 2-3 0-6 0-9 0-3 0-7 0-10 1-6 3-9 8-11 14 0 1 0 1 0 2 0 1 0 3 0 4 0 0 0 1 0 1 1 7 5 12 11 15 4 1 8 1 12 1 2 0 4 0 7 0 5 52 25 96 61 132 37 36 81 56 132 61 0 4 0 8 0 11 0 7 3 13 9 17 3 1 5 1 8 2 1 0 2 0 4 0 0 0 0 0 1 0 7-1 12-5 15-12 1-3 1-6 1-10 0-2 0-5 0-8 51-5 96-25 132-61 36-37 56-81 61-132 4 0 7 0 11 0 7 0 13-3 17-9 1-3 1-5 2-8 0-1 0-2 0-4z m-319-66c7-4 13-7 20-11 19-9 37-19 56-28 1-1 1-1 2 0 25 12 50 25 74 38 1 0 2 1 2 1-25-58-51-116-77-174-26 58-52 116-77 174 0 0 0 0 0 0z"/>
<glyph glyph-name="windne" unicode="&#57383;" d="M426 83c-2-1-5-3-7-3-8-2-14 0-19 5-3 2-5 4-7 6 0 0 0 1-1 1-3-2-5-4-8-6-14-11-29-20-45-26-22-10-46-15-70-17-32-2-63 3-93 16-5 2-11 4-16 7-10 6-12 20-5 29 7 7 15 9 24 4 10-4 20-8 30-11 25-7 50-8 75-4 22 4 43 11 62 23 6 4 12 8 19 12-1 1-1 2-2 2-3 4-7 8-11 12-7 7-8 18-1 26 7 8 20 9 28 1 4-4 8-8 12-12 0 0 1 0 1-1 50 61 52 155 0 218 0-1-1-1-1-1-4-4-8-8-12-12-7-7-18-8-26-1-9 7-9 20-1 28 4 4 8 8 12 12 0 0 0 1 1 1-54 45-147 56-218 0 1 0 1-1 1-1 4-4 8-8 12-12 7-7 7-18 1-26-7-9-20-9-29-1-4 4-7 8-11 11 0 1-1 1-1 2-4-5-8-10-11-16-17-26-26-54-27-85-1-29 4-57 17-84 3-6 4-12 1-18-6-11-19-14-29-7-3 2-5 4-7 8-15 32-22 66-21 102 2 36 12 69 30 100 5 9 12 18 18 26 1 1 1 1 1 1-2 2-4 4-6 6-2 3-5 5-6 9-2 6-1 12 2 17 0 1 1 1 1 2 1 1 2 2 3 3 0 0 1 0 1 0 6 4 12 5 18 3 4-2 7-5 10-8 1-1 3-3 4-4 40 32 86 49 137 49 51 0 97-17 136-49 3 2 5 5 8 7 5 5 11 7 19 5 2-1 4-2 7-3 1-1 2-2 3-3 0 0 0-1 0-1 4-6 5-12 2-19-1-3-3-6-6-8-2-2-3-4-5-6 32-39 49-85 49-136 0-51-17-97-49-137 2-2 5-5 7-7 5-5 7-12 5-19-1-2-2-5-3-7-1-1-2-2-3-3z m-273 179c3-7 5-14 7-22 6-19 13-39 19-59 0-1 1-2 2-2 26-8 53-17 80-25 0 0 1-1 1-1-59-23-118-46-177-68 22 59 45 118 68 177 0 0 0 0 0 0z"/>
<glyph glyph-name="windnw" unicode="&#57384;" d="M86 83c2-1 5-3 7-3 8-2 14 0 19 5 3 2 5 4 7 6 0 0 0 1 1 1 3-2 5-4 8-6 14-11 29-20 45-26 22-10 46-15 70-17 32-2 63 3 93 16 5 2 11 4 16 7 10 6 12 20 5 29-7 7-15 9-24 4-10-4-20-8-30-11-25-7-50-8-75-4-22 4-43 11-62 23-6 4-12 8-19 12 1 1 1 2 2 2 3 4 7 8 11 12 7 7 8 18 1 26-7 8-20 9-28 1-4-4-8-8-12-12 0 0-1 0-1-1-50 61-52 155 0 218 0-1 1-1 1-1 4-4 8-8 12-12 7-7 18-8 26-1 9 7 9 20 1 28-4 4-8 8-12 12 0 0 0 1-1 1 54 45 147 56 218 0-1 0-1-1-1-1-4-4-8-8-12-12-7-7-7-18-1-26 7-9 20-9 29-1 4 4 7 8 11 11 0 1 1 1 1 2 4-5 8-10 11-16 17-26 26-54 27-85 1-29-4-57-17-84-3-6-4-12-1-18 6-11 19-14 29-7 3 2 5 4 7 8 15 32 22 66 21 102-2 36-12 69-30 100-5 9-12 18-18 26-1 1-1 1-1 1 2 2 4 4 6 6 2 3 5 5 6 9 2 6 1 12-2 17 0 1-1 1-1 2-1 1-2 2-3 3 0 0-1 0-1 0-6 4-12 5-18 3-4-2-7-5-10-8-1-1-3-3-4-4-40 32-86 49-137 49-51 0-97-17-136-49-3 2-5 5-8 7-5 5-11 7-19 5-2-1-4-2-7-3-1-1-2-2-3-3 0 0 0-1 0-1-4-6-5-12-2-19 1-3 3-6 6-8 2-2 3-4 5-6-32-39-49-85-49-136 0-51 17-97 49-137-2-2-5-5-7-7-5-5-7-12-5-19 1-2 2-5 3-7 1-1 2-2 3-3z m273 179c-3-7-5-14-7-22-6-19-13-39-19-59 0-1-1-2-2-2-26-8-53-17-80-25 0 0-1-1-1-1 59-23 118-46 177-68-22 59-45 118-68 177 0 0 0 0 0 0z"/>
<glyph glyph-name="winds" unicode="&#57385;" d="M14 258c0 2 1 5 2 7 4 7 10 10 17 10 3 0 6 0 9 0 1 0 1 0 2 0 0 4 1 8 1 11 2 17 7 34 14 50 9 22 21 43 37 61 22 24 47 42 77 55 5 2 11 5 17 6 11 3 22-6 23-17 1-9-4-17-13-20-10-4-20-8-29-13-23-13-41-30-56-50-14-18-23-38-28-60-2-7-3-15-5-23 1 0 2 0 3 0 5 0 10 0 16 0 10 0 18-7 19-17 1-12-8-21-19-21-6 0-11 0-16 0-1 0-2 0-2 0 7-79 72-146 154-154 0 0 0 1 0 1 0 6 0 11 0 17 0 10 8 18 18 19 11 1 20-8 20-19 0-6 0-11 0-17 0 0 0-1 0-1 71 6 144 64 154 154 0 0-1 0-1 0-6 0-11 0-17 0-10 0-18 7-19 18-1 11 8 20 19 20 6 0 11 0 17 0 0 0 1 0 2 0-2 7-3 13-4 19-7 30-20 57-41 79-20 22-44 38-72 47-6 3-11 6-13 13-4 11 3 23 15 25 4 1 7 0 11-1 33-12 63-31 87-57 24-26 41-57 50-92 2-10 4-21 5-31 0-1 0-1 0-2 3 0 6 0 9 0 3 0 7 0 10-1 6-3 9-8 11-14 0-1 0-1 0-2 0-1 0-3 0-4 0 0 0-1 0-1-1-7-5-12-11-15-4-1-8-1-12-1-2 0-4 0-7 0-5-52-25-96-61-132-37-36-81-56-132-61 0-4 1-8 0-11 0-7-3-13-9-17-3-1-5-1-8-2-1 0-2 0-4 0 0 0 0 0-1 0-7 1-12 5-15 12-1 3-1 6-1 10 0 2 0 5 0 8-51 5-96 25-132 61-36 37-56 81-61 132-4 0-7 0-11 0-7 0-13 3-17 9-1 3-1 5-2 8 0 1 0 2 0 4z m319 66c-7 4-13 7-20 11-19 9-37 19-56 28-1 1-1 1-2 0-25-12-50-25-74-38-1 0-2-1-2-1 25 58 51 116 77 174 26-58 52-116 77-174 0 0 0 0 0 0z"/>
<glyph glyph-name="windse" unicode="&#57386;" d="M426 429c-2 1-5 3-7 3-8 2-14 0-19-5-3-2-5-4-7-6 0 0 0-1-1-1-3 2-5 4-8 6-14 11-29 20-45 26-22 10-46 15-70 17-32 2-63-3-93-16-5-2-11-4-16-7-10-6-12-20-5-29 7-7 15-9 24-4 10 4 20 8 30 11 25 7 50 8 75 4 22-4 43-11 62-23 6-4 12-8 19-12-1-1-1-2-2-2-3-4-7-8-11-12-7-7-8-18-1-26 7-8 20-9 28-1 4 4 8 8 12 12 0 0 1 0 1 1 50-61 52-155 0-218 0 1-1 1-1 1-4 4-8 8-12 12-7 7-18 8-26 1-9-7-9-20-1-28 4-4 8-8 12-12 0 0 0-1 1-1-54-45-147-56-218 0 1 0 1 1 1 1 4 4 8 8 12 12 7 7 7 18 1 26-7 9-20 9-29 1-4-4-7-8-11-11 0-1-1-1-1-2-4 5-8 10-11 16-17 26-26 54-27 85-1 29 4 57 17 84 3 6 4 12 1 18-6 11-19 14-29 7-3-2-5-4-7-8-15-32-22-66-21-102 2-36 12-69 30-100 5-9 12-18 18-26 1-1 1-1 1-1-2-2-4-4-6-6-2-3-5-5-6-9-2-6-1-12 2-17 0-1 1-1 1-2 1-1 2-2 3-3 0 0 1 0 1 0 6-4 12-5 18-3 4 2 7 5 10 8 1 1 3 3 4 4 40-32 86-49 137-49 51 0 97 17 136 49 3-2 5-5 8-7 5-5 11-7 19-5 2 1 4 2 7 3 1 1 2 2 3 3 0 0 0 1 0 1 4 6 5 12 2 19-1 3-3 6-6 8-2 2-3 4-5 6 32 39 49 85 49 136 0 51-17 97-49 137 2 2 5 5 7 7 5 5 7 12 5 19-1 2-2 5-3 7-1 1-2 2-3 3z m-273-179c3 7 5 14 7 22 6 19 13 39 19 59 0 1 1 2 2 2 26 8 53 17 80 25 0 0 1 1 1 1-59 23-118 46-177 68 22-59 45-118 68-177 0 0 0 0 0 0z"/>
<glyph glyph-name="windsw" unicode="&#57387;" d="M86 429c2 1 5 3 7 3 8 2 14 0 19-5 3-2 5-4 7-6 0 0 0-1 1-1 3 2 5 4 8 6 14 11 29 20 45 26 22 10 46 15 70 17 32 2 63-3 93-16 5-2 11-4 16-7 10-6 12-20 5-29-7-7-15-9-24-4-10 4-20 8-30 11-25 7-50 8-75 4-22-4-43-11-62-23-6-4-12-8-19-12 1-1 1-2 2-2 3-4 7-8 11-12 7-7 8-18 1-26-7-8-20-9-28-1-4 4-8 8-12 12 0 0-1 0-1 1-50-61-52-155 0-218 0 1 1 1 1 1 4 4 8 8 12 12 7 7 18 8 26 1 9-7 9-20 1-28-4-4-8-8-12-12 0 0 0-1-1-1 54-45 147-56 218 0-1 0-1 1-1 1-4 4-8 8-12 12-7 7-7 18-1 26 7 9 20 9 29 1 4-4 7-8 11-11 0-1 1-1 1-2 4 5 8 10 11 16 17 26 26 54 27 85 1 29-4 57-17 84-3 6-4 12-1 18 6 11 19 14 29 7 3-2 5-4 7-8 15-32 22-66 21-102-2-36-12-69-30-100-5-9-12-18-18-26-1-1-1-1-1-1 2-2 4-4 6-6 2-3 5-5 6-9 2-6 1-12-2-17 0-1-1-1-1-2-1-1-2-2-3-3 0 0-1 0-1 0-6-4-12-5-18-3-4 2-7 5-10 8-1 1-3 3-4 4-40-32-86-49-137-49-51 0-97 17-136 49-3-2-5-5-8-7-5-5-11-7-19-5-2 1-4 2-7 3-1 1-2 2-3 3 0 0 0 1 0 1-4 6-5 12-2 19 1 3 3 6 6 8 2 2 3 4 5 6-32 39-49 85-49 136 0 51 17 97 49 136-2 3-5 6-7 8-5 5-7 12-5 19 1 2 2 5 3 7 1 1 2 2 3 3z m273-179c-3 7-5 14-7 22-6 19-13 39-19 59 0 1-1 2-2 2-26 8-53 17-80 25 0 0-1 1-1 1 59 23 118 46 177 68-22-59-45-118-68-177 0 0 0 0 0 0z"/>
<glyph glyph-name="windw" unicode="&#57388;" d="M258 498c2 0 5-1 7-2 7-4 10-10 10-17 0-3 0-6 0-9 0-1 0-1 0-2 4 0 8-1 11-1 17-2 34-7 50-14 22-9 43-21 61-37 24-22 42-47 55-77 2-5 5-11 6-17 3-11-6-22-17-23-9-1-17 4-20 13-4 10-8 20-13 29-13 23-30 41-50 56-18 14-38 23-60 28-7 2-15 3-23 5 0-1 0-2 0-3 0-5 0-10 0-16 0-10-7-18-17-19-12-1-21 8-21 19 0 6 0 11 0 16 0 1 0 2 0 2-79-7-146-72-154-154 0 0 1 0 1 0 6 0 11 0 17 0 10 0 18-7 19-18 1-11-8-20-19-20-6 0-11 0-17 0 0 0-1 0-1 0 6-71 64-144 154-154 0 0 0 1 0 1 0 6 0 11 0 17 0 10 7 18 18 19 11 1 20-8 20-19 0-6 0-11 0-16 0-1 0-2 0-2 7 1 13 2 19 3 30 7 57 20 79 41 22 20 38 44 47 72 3 6 7 11 13 13 11 4 23-3 25-15 1-4 1-7-1-11-12-33-31-63-57-87-26-24-57-41-92-50-10-2-21-4-31-5-1 0-1 0-2 0 0-3 0-6 0-9 0-3 0-7-1-10-3-6-8-9-14-11-1 0-1 0-2 0-1 0-3 0-4 0 0 0-1 0-1 0-7 1-12 5-15 11-1 4-1 8-1 12 0 2 0 4 0 7-52 5-96 25-132 61-36 37-56 81-61 132-4 0-8 0-11 0-7 0-13 3-17 9-1 3-1 5-2 8 0 1 0 2 0 4 0 0 0 0 0 1 1 7 5 12 12 15 3 1 6 1 10 1 2 0 5 0 8 0 5 51 25 96 61 132 37 36 81 56 132 61 0 4 0 7 0 11 0 7 3 13 9 17 3 1 5 1 8 2 1 0 2 0 4 0z m66-319c4 7 7 13 11 20 9 19 19 37 28 56 1 1 1 1 0 2-12 25-25 50-38 74 0 1-1 2-1 2 58-25 116-51 174-77-58-26-116-52-174-77 0 0 0 0 0 0z"/>
<glyph glyph-name="entries-exits" unicode="&#57389;" d="M270 500c9-2 18-2 27-4 88-17 152-67 185-151 33-84 20-164-33-237-5-7-12-8-17-4-6 4-6 11-1 17 25 33 40 70 44 111 7 66-12 124-57 174-32 35-72 57-118 66-64 13-123 0-175-38-2-1-4-3-5-4-6-4-13-3-17 2-3 5-2 12 3 16 17 14 36 25 56 33 24 10 49 16 75 18 1 0 3 0 4 1 10 0 19 0 29 0z m-258-231c1 10 2 19 4 29 6 39 22 75 46 106 5 7 12 8 17 4 6-4 6-11 2-17-20-26-34-55-41-86-16-81 5-150 63-208 33-33 75-53 121-60 61-8 116 6 165 43 3 2 7 4 10 4 5 0 9-3 10-8 2-5 0-9-4-12-17-14-36-25-57-33-139-57-296 24-330 171-2 11-3 23-5 35 0 2-1 3-1 5 0 9 0 18 0 27z m285-123c-56 0-111 0-167 0 0 74 0 147 0 220 56 0 111 0 167 0 0-2 0-3 0-5 0-17 0-33 0-50 0-8 5-13 12-13 7 0 11 5 11 13 0 22 0 44 0 65 0 9-4 13-13 13-62 0-124 0-186 0-9 0-14-4-14-14 0-79 0-158 0-237 0-11 4-15 15-15 61 0 122 0 183 0 12 0 15 3 15 15 0 34 0 48 0 49l-23 0c0-33 0-9 0-41z m32 122c-36 0-71 0-107 0-1 0-2 0-4 0 1 2 2 2 3 3 7 7 14 14 21 22 3 3 3 6 1 9-3 2-6 2-10-1-11-11-22-22-33-33-3-4-3-7 0-10 7-7 14-14 20-20 5-5 9-9 14-14 4-4 9-2 10 3 1 2 0 4-2 6-7 7-14 14-21 22-1 0-1 1-2 2 15 0 68 0 73 0 12 0 25 0 37 0 4 0 6 2 7 5 0 4-3 6-7 6z m-55-49c35 0 71 0 106 0 1 0 2 0 4 0-1 1-2 2-2 2-7 7-15 15-22 22-3 3-3 6 0 9 2 3 6 2 9-1 11-11 22-22 33-33 4-3 4-6 0-10-6-7-13-13-20-20-4-5-9-9-13-14-4-3-10-2-11 3 0 2 1 4 2 6 7 7 15 15 22 22 0 0 1 1 2 2-16 0-69 0-73 0-13 0-25 0-37 0-4 0-7 2-7 5-1 4 2 7 7 7z"/>
<glyph glyph-name="queue" unicode="&#57390;" d="M410 339c0-37 0-73 0-110 16 5 33 9 49 14-1 3-2 5-3 8-2 8 2 17 10 21 8 3 17-1 21-8 4-8 2-18-5-23-4-2-4-5-4-8 0-46 0-92 0-137 0-2 0-3 0-5 2 0 4 0 7 0 4-1 7-4 7-8-1-4-3-7-8-7-8 0-16 0-24 0-5 0-7 3-7 7 0 4 2 7 7 8 2 0 4 0 6 0 0 46 0 92 0 139-1 0-3-1-4-1-32-12-65-18-98-23-42-6-84-8-127-7-56 2-112 7-166 23-9 3-17 5-25 8 0-46 0-92 0-139 2 0 4 0 6 0 5-1 7-4 7-8 0-4-2-7-7-7-8 0-16 0-24 0-5 0-7 3-8 7 0 4 3 7 7 8 2 0 5 0 7 0 0 2 0 4 0 6 0 46 0 91 0 137 0 2 0 5-3 6-8 6-10 16-5 25 5 7 14 10 22 6 8-5 11-15 7-24-1-1-1-2-2-4 16-5 32-9 48-14 0 37 0 72 0 109-4-4-5-8-5-14 0-18 0-37 0-56 0-9-6-14-13-13-6 1-9 6-9 14 0 18 0 37 0 56 0 3 0 6 1 8 4 21 20 36 41 39 14 1 27 1 40-4 18-8 28-24 28-44 0-19 0-37 0-56 0-8-4-13-10-13-7 0-11 5-11 13 0 19 0 37 0 56 0 5-1 10-5 15 0-40 0-79 0-119 8-1 17-2 27-3 0 7 0 13 0 19 0 3 0 5 3 6 8 2 13 8 14 17 0 25 0 50-1 74 0 11-4 22-10 31 0 1-1 3-2 5 8 3 17 4 26 4 11-1 23-3 33-10 12-9 19-21 19-37 0-19 0-39 0-58 0-8-4-13-11-13-6 0-10 5-10 13 0 19 0 37 0 56 0 5-1 10-5 15 0-42 0-83 0-125 10 0 19 0 30 0 0 8 0 15 0 22 0 3 0 5 4 6 7 2 12 11 12 20 0 23 0 47-1 71 0 11-4 21-9 30-1 2-2 4-3 6 9 3 18 4 27 4 13-1 26-4 36-13 9-9 15-19 15-32 0-21 0-41 0-61 0-7-4-12-11-12-6 0-10 5-10 12 0 19 0 38 0 57 0 6-1 10-6 15 0-41 0-81 0-122 9 1 18 2 28 3 1 0 2 2 2 3 0 2 0 4 0 6-1 7-1 12 7 15 6 2 9 10 9 17 0 24 0 47 0 71 0 11-4 22-10 32-1 1-1 3-3 5 10 3 19 4 29 4 12-1 24-4 34-13 10-8 16-19 16-32 0-20 0-40 0-61 0-7-4-12-11-12-6 0-10 5-11 12 0 19 0 39 0 58 0 5-1 10-5 14z m-192-123c0 7 0 15 0 22 0 4-2 6-5 6-4 0-5-2-5-6 0-5 0-10 0-14 0-9 0-9 8-9 0 0 1 0 2 1z m75-1c3 0 5 0 8 0 0 9 1 17 0 25 0 1-3 4-4 4-2 0-4-3-4-4-1-8 0-16 0-25z m84 8c3 1 6 1 8 2 1 0 2 1 2 2 0 4 1 9 0 13 0 2-3 4-5 4-1 0-4-2-4-4-1-5-1-11-1-17z m-242 0c0 6 0 11-1 16 0 2-2 5-4 5-3 1-4-2-4-5 0-3 0-6 0-10-1-4 1-5 5-5 1 0 2 0 4-1z m-33-26c0-26 0-53 0-79 0-7 5-12 12-12 6 0 11 5 12 12 0 5 0 11 0 16 0 19 0 38-1 56 0 2 0 5-1 5-7 2-14 3-22 4 0-1 0-1 0-2z m110 239c-14 0-26-12-25-27 0-14 11-26 25-26 14 0 25 12 25 27 0 14-11 26-25 26z m169-53c14 0 25 12 26 26 0 15-12 27-25 27-14 0-26-12-26-26 0-15 12-27 25-27z m-110 27c0-15 12-27 25-27 14 0 26 12 26 27 0 14-12 26-25 26-14 0-26-12-26-26z m-167-1c0-14 11-26 25-26 14 0 25 12 25 27 0 14-11 26-25 26-14 0-26-12-25-27z m283-217c0-24 0-49 0-73 0-2 1-4 1-6 2-5 6-8 11-7 6 0 10 5 10 13 0 26 0 51 0 77 0 1 0 2 0 3-7-1-14-3-21-4 0-1-1-2-1-3z m-29-1c-3-1-3-3-3-5 0-22 0-45 0-67 0-8 4-13 11-13 7 0 11 5 11 13 0 18 0 36 0 54 0 7 0 13 0 20-7-1-13-2-19-2z m-223-2c0-23 0-46 0-69 0-9 4-14 11-14 7 0 11 5 11 14 0 21 0 43 0 65 0 1 0 3 0 5-8 1-15 2-22 3 0-1 0-3 0-4z m50-19c0-17 0-34 0-51 0-8 5-13 12-13 6 0 10 5 11 13 0 3 0 7 0 10 0 18 0 35 0 52-1 2-2 5-3 5-6 1-13 1-20 1 0-6 0-12 0-17z m121 16c-4 0-5-1-5-5 1-20 0-41 1-62 0-2 0-5 1-7 3-5 8-7 13-6 5 1 8 6 8 12 0 22 0 44 0 66 0 1 0 2 0 3-6 0-12-1-18-1z m-88-68c0-8 6-13 13-12 6 1 9 5 9 13 0 20 0 41 0 61 0 2 0 3 0 5-8 0-15 0-22 0 0-23-1-45 0-67z m53 58c0-18 0-36 0-54 0-3 0-5 0-8 1-5 5-8 10-8 5-1 9 2 11 7 0 2 0 4 0 6 1 21 1 42 1 63 0 1-1 2-1 3-7 0-14 0-21 0 0-4 0-6 0-9z"/>
<glyph glyph-name="queue-peak" unicode="&#57391;" d="M226 341l0 0c10 0 18 8 18 18 0 11-8 19-18 19-4 0-9-2-12-5-4-4-5-9-5-14 0-10 8-18 17-18z m0 1l0 0z m-56-1l0 0c10 0 18 8 18 19 0 5-2 9-6 13-3 3-7 5-12 5-4 0-9-2-12-5-3-4-5-9-5-14 0-10 8-18 17-18z m0 1l0 0z m240-197c-1 0-2 0-3 0 0 0-1 0-1 0l0 1c0 1 0 1 0 2 0 12 0 25 0 37 0 18 0 37 0 55 0 3 0 4 2 5 6 3 7 11 4 16-2 4-6 7-10 7-2 0-3 0-4-1-6-2-9-9-8-15 1-1 1-2 2-3 0 0 0-1 0-1l-3-1c-10-3-19-6-29-9l0 72c2-2 3-4 3-8l0-8c0-10 0-20 0-30 0-6 3-9 8-9 5 0 8 3 8 9l0 6c0 11 0 23 0 35-1 8-4 16-11 22-6 5-14 8-24 8-1 0-2 0-3 0-6 0-11-1-16-2l-1-1 1-1c0-1 1-2 1-3 5-7 7-14 7-21 0-16 0-33 0-48 0-4-2-9-6-11-6-2-5-6-5-10 0-1 0-3 0-4 0-1-1-2-1-2-5 0-11-1-16-2l-2 0 0 80c2-2 3-5 3-8l0-4c0-11 0-23 0-35 0-5 3-8 8-8 4 0 7 3 7 8l0 5c0 12 1 24 0 36 0 9-3 16-10 22-6 6-14 9-24 9-2 0-3 0-4 0-5 0-11-1-15-2l-1-1 0 0c1-2 2-3 2-4 5-7 6-14 7-20 0-16 0-33 0-48 0-6-3-11-7-13-3-1-4-2-4-5 0-3 0-6 0-10 0-1 0-2 0-4l-19 0 0 82c2-3 2-5 2-8 0-5 0-10 0-15 0-8 0-15 0-23 0-6 4-9 8-9 5 0 8 3 8 9l0 8c0 10 0 21 0 31 0 11-4 20-13 26-6 4-13 6-23 6-1 0-1 0-2 0-6 0-11-1-15-2l-1-1 0 0c1-1 1-2 1-2l1-1c4-8 6-15 7-21 0-17 0-35 0-50 0-5-4-10-9-11-2-1-3-2-3-4 0-3 0-6 0-10 0-1 0-2 0-3l-2 1c-5 0-10 1-15 1l0 78c2-3 3-5 3-8l0-8c0-10 0-20 0-30 0-6 3-9 7-9 5 0 8 3 8 9 0 13 0 25 0 38 0 14-7 25-19 30-8 3-17 4-27 3-15-2-26-13-29-27 0-1 0-3 0-6 0-13 0-26 0-38 0-5 2-9 6-9 6-1 10 3 10 9 0 13 0 26 0 38 0 3 0 6 2 8l0-71c-10 3-21 6-31 9l1 1c3 7 1 14-5 17-2 1-4 2-6 2-4 0-8-2-10-6-3-6-2-13 4-17 2-1 2-2 2-4 0-31 0-61 0-92l0-4c0 0-1 0-1 0-1 0-2 0-3 0-4 0-6-2-5-6 0-3 2-5 5-5 6 0 11 0 17 0 3 0 5 2 5 5 0 4-2 6-5 6-1 0-2 0-3 0 0 0-1 0-1 0l0 93c2-1 3-1 4-2 4-1 8-2 12-3 32-10 68-15 112-16 5 0 10 0 14 0 25 0 49 2 72 5 27 4 47 8 66 15 1 0 1 1 2 1 0 0 0 0 0 0l0-93c0 0-1 0-1 0-1 0-2 0-3 0-3 0-5-2-5-6 0-3 2-5 5-5 3 0 6 0 9 0 2 0 5 0 8 0 3 0 5 2 5 5 0 4-2 6-5 6z m-66 93l0-1c0-1-1-1-1-2-1 0-2 0-4 0 0 0 0 0 0 0-1 1-1 1-1 2 0 3 0 6 1 8 0 1 1 2 2 2 1 0 3-1 3-2 0-2 0-5 0-7z m-63 7c0 1 2 2 3 2 0 0 2-1 2-2 0-4 0-8 0-12 0-1 0-3 0-4l-5 0c0 1 0 3 0 4 0 4 0 8 0 12z m-57-1c0 1 0 2 1 3 0 0 1 0 2 0 1 0 1 0 2 0 0-1 0-2 0-3 0-4 0-8 0-11l0-4c0 0 0 0 0 0 0 0 0 0 0 0-1 0-2 0-2 0-3 0-3 0-3 5l0 3c0 3 0 5 0 7z m-55-8c0 0 0 1 0 2 0 1 0 3 0 4 0 1 0 2 0 3 0 1 0 3 2 2 1 0 2-1 2-2 1-3 1-5 1-8 0-1 0-1 0-2-1 0-1 0-1 0 0 0-1 0-2 0l0 0c-1 0-1 0-2 1z m2-2z m169 107l0 0c10 0 18 8 18 18 0 5-2 10-5 14-4 3-8 5-12 5-10 0-18-8-18-19 0-10 8-18 17-18z m0 1z m20-124l-1 0 0 0c-3 0-6-1-8-1l-7-2 0 0c0 0 0-1 0-1 0 0 0-1 0-1 0-17 0-33 0-49 0-1 0-3 1-4 1-4 3-6 7-6 0 0 0 0 0 0 5 0 8 4 8 10 0 17 0 34 0 51 0 1 0 1 0 2 0 0 0 0 0 1z m-77 123l0 0c5 0 9 2 13 5 3 4 5 9 5 14 0 10-8 18-18 18-9 0-17-8-17-18 0-10 8-19 17-19z m20-133c0 0 0 0 0 1-1 0-1 0-1 1l0 0 0 0c-2 0-3 0-4 0-3 0-6 0-9-1-2 0-3-1-3-3 0-7 0-14 0-21 0-7 0-14 0-21 0-2 1-4 1-5 2-3 4-5 7-5 1 0 2 0 3 0 3 1 6 5 6 9 0 12 0 23 0 34z m30 6c-3-1-6-1-9-1-2-1-2-3-2-4 0-7 0-13 0-20 0-8 0-17 0-26 0-5 3-9 8-9l0 0c5 0 8 4 8 10 0 9 0 18 0 28l0 22 0 0c-2 0-3 0-5 0z m-3-59z m-161 19l0 8c0 10 0 20 0 30 0 1-1 3-2 3-4 1-8 2-11 3l-4 0 0 0c0 0 0-1 0-1 0 0-1 0-1-1l0-11c0-14 0-28 0-42 0-5 4-9 9-9l0 0c5 0 8 4 9 9 0 3 0 5 0 8 0 1 0 2 0 3z m112 34l-16 0 0-20c0-7 0-15 0-23 0-1 0-3 1-5 0-3 3-6 7-6 0 0 0 0 0 0 4 0 7 2 8 6 0 1 0 2 0 4 0 14 0 28 0 42 0 0 0 1 0 1z m-35-3c0 1 0 1 0 2 0 0 0 1 0 1l0 1-17 0 0-1c0-5 0-9 0-13 0-11 0-22 1-32 0-5 3-9 8-9 0 0 1 0 1 0 4 1 7 4 7 10 0 13 0 27 0 40z m-56 3c0 1 0 2 0 3l0 1-1 0c-5 1-10 2-15 2l0 0 0 0c0-1 0-1 0-1 0-1 0-2 0-2 0-16 0-31 0-47 0-6 3-10 8-10l0 0c5 0 8 4 8 10 0 13 0 25 0 38z m-8-53l0 0z m42 51c0 1-1 3-2 3-4 1-7 1-11 1-1 0-2 0-3 0l-1 0 0-21c0-8 0-17 0-25 0-6 4-10 9-10l0 0c5 0 8 4 8 10 0 1 0 3 0 5l0 8c0 9 0 19 0 29z m46 294c9-2 18-2 27-4 88-17 152-67 185-151 33-84 20-164-33-237-5-7-12-8-17-4-6 4-6 11-1 17 25 33 40 70 44 111 7 66-12 124-57 174-32 35-72 57-118 66-64 13-123 0-175-38-2-1-4-3-5-4-6-4-13-3-17 2-3 5-2 12 3 16 17 14 36 25 56 33 24 10 49 16 75 18 1 0 3 0 4 1 10 0 19 0 29 0z m-258-231c1 10 2 19 4 29 6 39 22 75 46 106 5 7 12 8 17 4 6-4 6-11 2-17-20-26-34-55-41-86-16-81 5-150 63-208 33-33 74-53 121-60 61-8 116 6 165 43 3 2 7 4 10 4 5 0 9-3 10-8 2-5 0-9-4-12-17-14-36-25-57-33-139-57-296 24-330 171-2 11-3 23-5 35 0 2-1 3-1 5 0 9 0 18 0 27z"/>
<glyph glyph-name="service-time" unicode="&#57392;" d="M270 23c23 1 56 10 81 22 5 2 9 4 13 7 9 5 12 15 7 24-5 8-15 11-24 6-28-15-59-24-91-23-33 0-63 7-92 24-50 30-80 73-90 130-8 51 4 98 34 139 32 42 74 66 126 73 5 1 9 1 13 1 3 0 5 0 8 0 0-5 0-11 0-16 0-3 0-8 3-8 2 0 5 1 7 3 12 10 24 21 37 31 7 6 7 11 0 17-14 11-27 22-41 33 0 0-2 2-4 3-1 1-2-1-2-2 0 0 0-1 0-1 0 0 0-16 0-24-71-2-129-30-172-86-33-41-48-89-46-142 2-56 23-104 62-144 39-40 87-62 143-67-3 0 6 0 28 0z m-26 286c-4 4-5 9-4 15 0 3 2 7 5 9 6 6 15 6 21 1 4-3 6-7 6-12 1-4 0-4-4-13 1 0 1-1 2-1 12-1 23-5 33-11 18-10 31-23 40-41 10-17 14-36 13-56 0-2-1-3-3-3-54 0-108 0-162 0 0 0-1 0-2 0 2 44 18 80 56 104 0 0 0 1-1 1-4-2-9-4-13-6-11-5-20-12-28-21-5-5-8-10-12-15-10-16-14-34-16-52 0-3-1-6-1-9 0-1 0-2-2-2-5 0-9 0-14 0-1 0-2 1-2 2-1 19 2 37 11 55 9 17 22 31 39 41 11 7 23 11 35 13 1 0 2 0 3 1 0 0 0 0 0 0z m130-118c0-7 0-14 0-21-79 0-157 0-236 0 0 7 0 14 0 21 78 0 157 0 236 0z m101 42c0-4 0-7-1-10-1-10-9-18-19-17-10 1-17 10-16 21 1 3 1 5 1 8 0 12 8 19 18 19 10-1 17-9 17-20 0 0 0-1 0-1 0 0 0 0 0 0z m-81 174c-1-9-3-14-9-18-5-3-12-3-17 0-5 3-9 6-14 9-6 6-8 16-3 23 5 7 14 10 22 6 6-3 11-6 16-11 3-3 4-7 5-9z m47-52c0-8-5-14-12-17-7-2-14 0-19 6-3 3-6 8-9 12-4 6-3 14 2 20 4 6 12 8 19 6 8-3 19-19 19-27z m8-33c7-1 12-4 15-11 2-5 4-11 5-16 1-9-4-17-13-20-9-2-18 3-21 11-2 5-3 10-4 15-3 11 6 21 18 21z m-10-182c-12 0-21 12-17 24 2 4 4 8 6 13 4 8 13 12 22 9 8-3 13-12 11-21-2-6-5-12-8-17-3-5-8-8-14-8z m-13-30c0 0 0 0 0-1-1-9-14-24-23-25-7-1-14 2-18 8-4 7-3 14 1 20 3 4 7 8 11 12 5 4 12 5 19 2 6-3 10-8 10-16z"/>
<glyph glyph-name="time" unicode="&#57393;" d="M270 23c23 1 56 10 81 22 5 2 9 4 13 7 9 5 12 15 7 24-5 8-15 11-24 6-29-15-59-24-91-23-33 0-63 7-92 24-50 30-80 73-90 130-8 51 4 98 34 139 32 42 74 66 126 73 5 1 9 1 13 1 3 0 5 0 8 0 0-5 0-11 0-16 0-3 0-8 3-8 2 0 5 1 7 3 12 10 24 21 37 31 7 6 7 11 0 17-14 11-27 22-41 33 0 0-2 1-4 3-1 1-2-1-2-2 0 0 0-1 0-1 0 0 0-16 0-24-71-2-129-30-172-86-33-41-48-89-46-142 2-56 23-104 62-144 39-40 87-62 143-67-3 0 6 0 28 0z m85 278c-3-10-7-19-9-28-5-16-15-25-31-28-12-2-24-5-35-8-6-1-8-9-5-13 10-11 19-23 29-34 6-8 8-16 5-25-4-11-7-22-11-33 1-1 2-1 3-1 4-2 5-4 3-8-1-5-3-9-5-14-1-4-3-5-7-4-29 10-59 20-88 30-18 6-37 13-55 19-6 2-7 3-5 9 1 3 2 6 4 9 2 9 2 9 11 7 3 8 6 15 8 23 4 18 16 26 34 29 11 2 21 5 32 7 6 1 8 9 5 14-10 11-19 22-29 33-6 8-8 16-5 25 4 13 8 25 13 38-1 0-1 0-1 0-7 4-7 4-5 12 2 3 3 7 4 10 2 6 3 6 8 5 30-11 60-21 90-31 18-6 36-12 54-18 4-1 5-4 3-8-1-4-2-8-4-12-2-7-2-7-11-5z m-124 43c-4-12-8-24-12-36-3-6-1-10 3-15 10-12 20-24 31-37 2-3 3-6 2-10-2-5-4-9-5-14-1-4-4-6-8-7-15-3-30-7-45-10-5-1-10-3-12-8-5-11-8-22-12-33 37-13 74-25 111-38 4 11 7 22 11 32 2 5 0 9-3 13-11 13-21 25-32 38-2 3-3 6-2 10 2 5 4 9 5 14 1 4 4 6 8 7 15 4 31 7 46 10 5 2 10 4 12 9 4 12 8 24 13 37-38 12-74 25-111 38z m244-111c0-4 0-7-1-10-1-10-9-18-19-17-10 1-17 10-16 21 1 3 1 5 1 8 0 12 8 19 18 19 10-1 17-9 17-20 0 0 0-1 0-1 0 0 0 0 0 0z m-81 174c-1-9-3-14-9-18-5-3-12-3-17 0-5 3-9 6-14 9-6 6-8 16-3 23 5 7 14 10 22 6 6-3 11-6 16-11 3-3 4-7 5-9z m47-52c0-8-5-14-12-17-7-2-14 0-19 6-3 3-6 8-9 12-4 6-3 14 2 20 4 6 12 8 19 6 8-3 19-19 19-27z m8-33c7-1 12-4 15-11 2-5 4-11 5-16 1-9-4-17-14-20-8-2-17 3-20 11-2 5-3 10-4 15-3 11 6 21 18 21z m-10-182c-12 0-21 12-17 24 2 4 4 8 6 13 4 8 13 12 22 9 8-3 13-12 11-21-2-6-5-12-8-17-3-5-8-8-14-8z m-13-30c0 0 0 0 0-1-1-9-14-24-23-25-7-1-14 2-18 8-4 7-3 14 1 20 3 4 7 8 11 12 5 4 12 5 19 2 6-3 10-8 10-16z"/>
<glyph glyph-name="waiting-time" unicode="&#57394;" d="M188 99c-1 0-3 1-4 2-5 2-7 7-7 12 0 37 0 74 0 111 0 16 0 33 0 49 0 1 0 2 0 2 0 2-1 4-2 4-2 0-3-1-4-3 0-3-1-6-1-9-3-15-6-30-10-46-1-6-6-10-12-8-4 1-7 5-6 10 4 21 8 42 12 62 1 5 2 9 2 13 2 10 9 15 19 15 23 1 45 0 67 0 11 0 18-5 20-15 4-21 8-43 12-64 0-3 1-7 2-10 1-6-2-10-8-11-5-1-9 2-10 7-4 18-7 36-11 54 0 0 0 1 0 1-1 2-1 4-3 4-3-1-3-3-3-5 0-53 0-105 0-158 0-8-2-14-11-17-2 0-4 0-5 0-9 3-12 8-12 17 1 30 1 60 1 89 0 4-2 6-5 6-3 0-5-2-5-6 0 0 0 0 0 0 0-31 0-61 0-91 0-5-1-9-5-12-2-1-4-2-6-3-2 0-3 0-5 0z m-1 246c0 12 10 22 22 22 13 0 22-10 22-23 0-12-10-22-22-22-13 1-22 11-22 23z m83 153c9-2 18-2 26-4 88-17 151-67 184-150 33-83 20-163-33-235-4-6-11-8-17-4-5 4-6 11-1 17 25 33 40 69 44 110 7 66-12 124-57 173-31 34-71 57-117 66-63 12-121-1-173-39-2-1-3-2-5-3-6-4-12-3-16 2-4 5-3 11 2 16 17 13 36 24 56 32 24 10 48 16 74 18 1 0 3 0 4 1 10 0 19 0 29 0z m-256-229c1 10 2 19 4 29 6 39 22 74 46 105 5 6 11 8 17 3 5-4 6-10 1-16-20-26-34-54-40-86-16-79 4-148 62-206 33-33 74-52 121-59 60-8 114 6 163 43 3 2 7 3 10 3 5 1 9-3 10-7 1-5 0-10-4-13-18-13-36-24-56-33-138-56-295 25-328 170-2 12-3 24-5 35 0 2-1 3-1 5 0 9 0 18 0 27z m269 85c0 30 23 54 53 54 29 0 53-24 53-54 1-28-25-53-53-53-29 0-53 24-53 53z m9 1c0-25 19-44 44-44 23-1 44 20 44 44 0 23-20 43-44 43-25 0-44-19-44-43z m74 4l-26 0 0 25c0 2-2 4-4 4-3 0-5-2-5-4l0-30c0-2 2-4 5-4 0 0 0 0 0 0 0 0 0 0 1 0l29 0c2 0 5 2 5 4 0 3-3 5-5 5z"/>
<glyph glyph-name="battery" unicode="&#57395;" d="M256 479c94 0 174-59 206-141l21 0c-34 93-123 159-227 159-104 0-193-66-227-159l21 0c32 82 112 141 206 141z m240-198l-20 0c1-8 2-16 2-24 0-122-100-222-222-222-122 0-222 100-222 222 0 8 1 16 2 24l-20 0c-1-9-1-17-1-25 0-133 108-241 241-241 133 0 241 108 241 241 0 8 0 16-1 25z m-383 33c6 15 18 19 33 19 64-1 129-1 193-1 20 0 29-8 30-29 0-1 0-3 0-6 5 0 10 0 16 0 9 0 14-4 14-14 0-18 0-36 0-54 0-9-5-14-14-14-5 0-10 0-16 0 0-4 0-6 0-9-1-16-10-26-27-26-38 0-76 0-114 0-28 0-56 0-84-1-15 0-26 5-31 20 0 38 0 77 0 115z m25-109c69 0 137 0 206 0 0 34 0 68 0 102-69 0-137 0-206 0 0-34 0-68 0-102z m19 84c9 0 16 0 24 0 0-22 0-44 0-66-8 0-15 0-24 0 0 22 0 44 0 66z m47-66c0 22 0 44 0 66 8 0 16 0 24 0 0-22 0-44 0-66-8 0-16 0-24 0z m70 0c-8 0-16 0-24 0 0 22 0 43 0 65 8 0 16 0 24 0 0-21 0-43 0-65z"/>
<glyph glyph-name="leaf" unicode="&#57396;" d="M256 479c94 0 174-59 206-141l21 0c-34 93-123 159-227 159-104 0-193-66-227-159l21 0c32 82 112 141 206 141z m240-198l-20 0c1-8 2-16 2-24 0-122-100-222-222-222-122 0-222 100-222 222 0 8 1 16 2 24l-20 0c-1-9-1-17-1-25 0-133 108-241 241-241 133 0 241 108 241 241 0 8 0 16-1 25z m-315-152c-6 1-11 4-14 9-2 2-2 4 0 7 16 27 38 48 66 63 11 5 21 11 31 16 12 7 24 15 34 25 7 8 13 17 17 27 1 0 1 0 1 1 0 0 0 0-1 0 0 0 0 0 0 0-10-19-26-31-45-39-12-5-23-10-35-15-18-8-34-17-48-31-1 0-1 0-1-1-3 6-5 13-6 20-3 26 13 53 36 65 13 6 28 10 42 14 13 3 25 6 38 9 13 4 25 12 34 23 0 1 0 1 0 1 1-1 1-1 2-2 11-21 16-43 14-67-2-27-11-51-31-71-13-13-29-21-47-24-16-4-32-4-48 1-4 2-9 4-14 6-11-10-18-24-25-37z m105 254c2-3 4-6 6-9 5-7 9-14 12-22 2-4 3-9 2-13-2-10-11-17-21-16-11 1-19 9-19 20 0 3 1 6 2 9 2 5 5 10 8 16 3 5 7 10 10 15 0 0 0 0 0 0z"/>
<glyph glyph-name="ph" unicode="&#57397;" d="M256 479c94 0 174-59 206-141l21 0c-34 93-123 159-227 159-104 0-193-66-227-159l21 0c32 82 112 141 206 141z m240-198l-20 0c1-8 2-16 2-24 0-122-100-222-222-222-122 0-222 100-222 222 0 8 1 16 2 24l-20 0c-1-9-1-17-1-25 0-133 108-241 241-241 133 0 241 108 241 241 0 8 0 16-1 25z m-387 63c12 2 28 4 50 4 25 0 43-5 54-15 11-9 18-23 18-40 0-18-5-32-16-42-13-13-34-19-57-19-6 0-12 0-16 1l0-69-33 0z m33-85c4-1 9-1 16-1 25 0 40 12 40 33 0 21-14 31-37 31-9 0-16 0-19-1z m151 87l0-73 77 0 0 73 33 0 0-182-33 0 0 81-77 0 0-81-33 0 0 182z"/>
<glyph glyph-name="pressure" unicode="&#57398;" d="M58 256c-1 109 89 198 198 198 109 0 198-89 198-197 0-110-88-199-198-199-109-1-198 89-198 198z m198 161c-90 0-162-72-161-162 0-88 73-161 162-160 88 0 161 73 160 161 0 89-72 162-161 161z m-133-195c24 0 48 0 72 0 1-20 8-37 24-49 11-9 25-13 39-12 17 0 31 7 42 18 11 12 17 26 17 43 24 0 48 0 72 0-7-25-19-46-37-64-24-23-53-37-86-39-77-5-131 50-143 103z m81 103c5-7 11-13 17-20 11-15 23-29 35-43 1-2 4-3 7-4 18-3 30-18 31-36 0-17-12-33-29-37-15-4-28 0-38 12-9 12-11 25-6 39 2 3 2 6 1 9-6 26-12 51-18 77-1 1-1 2-1 3 0 0 1 0 1 0z m148-21c-2 4-4 7-6 12 8 4 17 9 25 14 3-4 5-7 7-11-9-5-17-10-26-15z m-33 74c4-2 7-4 11-6-5-9-9-18-14-26-4 2-8 4-12 6 5 9 10 17 15 26z m-153-62c-2-5-4-8-6-12-9 5-17 10-26 15 2 4 4 7 6 11 9-5 18-9 26-14z m16 55c4 3 7 5 11 7 5-8 10-17 15-26-4-2-7-4-11-6-5 8-10 17-15 25z m80 22c0-10 0-20 0-29-4 0-8 0-12 0 0 9 0 19 0 29 4 0 8 0 12 0z m-114-131c0-4 0-8 0-12-9 0-19 0-29 0 0 4 0 8 0 12 10 0 19 0 29 0z m216 0c10 0 19 0 29 0 0-4 0-8 0-12-10 0-19 0-29 0 0 4 0 8 0 12z"/>
<glyph glyph-name="rain" unicode="&#57399;" d="M256 479c94 0 174-59 206-141l21 0c-34 93-123 159-227 159-104 0-193-66-227-159l21 0c32 82 112 141 206 141z m240-198l-20 0c1-8 2-16 2-24 0-122-100-222-222-222-122 0-222 100-222 222 0 8 1 16 2 24l-20 0c-1-9-1-17-1-25 0-133 108-241 241-241 133 0 241 108 241 241 0 8 0 16-1 25z m-389-40c0 1 0 2 0 4 1 8 4 16 9 23 6 10 16 17 27 22 7 3 15 4 23 3 0 0 1 0 1 1 5 11 14 19 25 24 0 0 1 0 1 1 5 20 17 34 36 43 7 3 15 5 23 6 12 0 24-2 35-8 9-5 17-12 22-20 1-1 2-1 3-1 24 5 50-8 60-32 3-6 5-13 5-20 0-1 0-1 1-2 8-4 14-11 19-19 4-6 6-13 7-20 1-2 1-4 1-6 0-2 0-4 0-6 0-1 0-3 0-4-2-11-6-20-13-29-7-8-15-14-26-17-5-2-11-3-17-3-3 0-5 0-8 0-1 0-1 1-1 1-3 6-6 12-9 18 0 0 0 0 0 0 0 0 0 0 1 0 5 0 11 0 17 0 11 0 21 5 29 14 5 6 8 12 8 20 1 11-2 20-9 28-4 4-8 8-14 10-1 1-3 1-4 2-1 0-1 0-1 1 0 4 1 7 0 10 0 8-2 15-6 21-5 6-12 11-19 14-7 2-14 2-21 0-4-1-7-2-10-3 0-1-1-1-1 0-2 4-4 7-6 11-7 10-16 17-28 20-13 3-25 1-36-6-12-8-19-19-21-33 0-2-1-3-1-5 0-1 0-1-1-1-2-1-5-1-8-2-10-4-16-11-18-21-1-3-1-5-2-8-2 0-4 0-6 1-4 1-8 2-12 2-8-1-15-3-21-7-7-5-11-12-14-19-2-7-2-14 0-22 3-9 8-16 16-21 6-4 13-6 20-6 9 0 18 0 27 0 0 0 0 0 1 0 0 0-1-1-1-1-3-5-5-11-8-17 0 0-1-1-1-1-6 0-12 0-18 0-23 1-43 14-52 35-2 5-4 11-4 17 0 1 0 1 0 1 0 2 0 4 0 7z m168 34c2-3 3-6 5-9 4-6 7-12 10-18 1-3 2-6 3-9 1-4 0-9-3-12-6-9-17-11-25-5-6 3-9 9-9 16 0 2 1 5 2 7 2 5 5 10 7 15 3 5 6 9 9 14 0 0 0 0 1 1z m-47-47c1-1 2-2 2-3 5-8 10-16 14-24 1-2 2-5 2-8 1-4 0-8-2-11-6-11-20-13-29-5-4 4-6 10-5 16 0 3 1 5 2 8 5 9 10 18 16 27 0 0 0 0 0 0z m75-28c2-3 3-6 5-9 4-6 8-13 11-20 2-4 3-8 2-12-2-9-11-16-20-15-10 1-17 9-17 18 0 3 1 6 2 9 2 5 5 10 7 14 3 5 6 10 9 14 0 1 0 1 1 1z"/>
<glyph glyph-name="windspeed" unicode="&#57400;" d="M256 479c94 0 174-59 206-141l21 0c-34 93-123 159-227 159-104 0-193-66-227-159l21 0c32 82 112 141 206 141z m240-198l-20 0c1-8 2-16 2-24 0-122-100-222-222-222-122 0-222 100-222 222 0 8 1 16 2 24l-20 0c-1-9-1-17-1-25 0-133 108-241 241-241 133 0 241 108 241 241 0 8 0 16-1 25z m-264-13c31 0 62 0 94 0 17 1 30 9 37 25 8 16 6 31-5 45-19 23-53 21-69-3-10-15-10-31-1-46 1-2 1-3 1-5-1 0-3-1-4-1-5 0-10 0-15 0-2 0-4 1-5 4-15 38 10 81 51 87 40 5 74-26 73-66-1-32-27-60-59-62-23-1-46 0-70 0-41 0-82 0-123 0-2 0-3 0-5 0-5 1-9 5-9 11 0 5 3 10 9 11 1 0 3 0 5 0 31 0 63 0 95 0z m-19-34c25 0 50 0 75 0 25 0 46-18 51-44 4-23-11-48-34-56-34-12-70 15-68 51 0 5 2 10 3 15 0 2 2 3 4 3 4 0 8 0 13 0 4 0 5-3 3-6-5-12-5-23 2-33 8-12 24-17 37-12 13 5 21 19 20 33-2 18-18 28-31 28-51-1-102 0-153 0-8 0-13 5-12 12 1 5 5 9 11 9 17 0 34 0 51 0 10 0 19 0 28 0 0 0 0 0 0 0z m-44 65c12 0 23 0 35 0 15 0 29 11 31 27 3 14-6 28-19 34-14 5-29 0-37-11-8-11-8-24-2-35 1-1 2-4 1-5 0-1-3-2-5-2-3 0-7 0-10 0-3 0-5 1-6 4-13 30 7 64 39 69 33 6 62-21 60-54-2-23-20-43-43-47-13-2-25-1-38-1-14-1-29 0-43 0-3 0-5 1-6 2-4 4-4 13 0 17 1 1 3 2 5 2 13 0 25 0 38 0 0 0 0 0 0 0z"/>
<glyph glyph-name="asterplot-graph" unicode="&#57401;" d="M473 259c-1 74-39 139-97 178-2 1-3 2-5 3-32 20-71 32-112 33-1 0-2 0-3 0-1 0-2 0-3 0-70-1-133-36-172-88-1-2-2-3-3-5-24-34-38-76-39-121 0-1 0-2 0-3 0-1 0-2 0-3 0-29 7-57 18-83 0-1 1-3 2-4 34-74 108-126 194-127 1 0 2 0 3 0 1 0 2 0 3 0 25 0 50 5 73 14 2 0 3 1 5 2 79 31 135 108 136 198 0 1 0 2 0 3 0 1 0 2 0 3z m-214 209c40-1 78-13 110-33l-13-20c-29 18-62 28-97 29l0 24z m-6 0l0-82c-41 0-78-21-101-52l-67 48c39 51 100 85 168 86z m-171-91l24-16c-21-29-33-64-33-102l-29 0c1 44 15 85 38 118z m-38-124l72 0c1-18 5-35 11-51l-66-30c-10 25-16 53-17 81z m209-209c-84 1-156 52-189 124l47 21c25-54 79-91 142-92z m3 147c-36 0-65 29-65 65 0 36 29 65 65 65 36 0 65-29 65-65 0-36-29-65-65-65z m3-147l0 27c21 0 42 4 61 12l10-26c-22-8-46-13-71-13z m76 15l-31 78c47 19 79 64 80 116l84 0c-1-87-56-163-133-194z m71 200c-1 50-27 95-66 122l33 52c56-38 94-102 95-174z"/>
<glyph glyph-name="parallel-coord-graph" unicode="&#57402;" d="M62 184l0-4 107 4 0 0 2 0 3 0 111-57 63 98 116 88 0 0 21 41-23 24-119-89-63-90-105-7-8 13-105 210 0 36-15 0 0-390 418 0 0 15-403 0z m396 134l-115-88-60-93-70 35 73-20 62 93 116 88 4 4z m-173-126l63 91 113 85 8-8-9 0-117-87 0-1-61-91-63 7z m1-19l62 94 115 85 8 0-12-13-116-89 0 0-61-90-70 21z m-224 15l0 15 72-12z m0 104l73-73-73 52z m0-81l0 19 77-32z m0 28l0 23 79-57z m0 64l0 29 78-107z m0 42l0 19 68-113z m55-58l-55 92 0 19z"/>
<glyph glyph-name="scatter-graph" unicode="&#57403;" d="M62 76l0 375-15 0 0-390 418 0 0 15z m245 180c0-19-15-34-34-34-19 0-34 15-34 34 0 19 15 34 34 34 19 0 34-15 34-34z m-125-115c0-24-19-44-44-44-24 0-43 20-43 44 0 24 19 43 43 43 25 0 44-19 44-43z m-74 241l30-52 31 52z m247-83l53-90 52 90z m89 71l-33-46-34 46 34 46z m-116-236l-21-28-21 28 21 29z m-134 135l-19 0 0 19-30 0 0-19-19 0 0-30 19 0 0-19 30 0 0 19 19 0z"/>
<glyph glyph-name="stream-graph" unicode="&#57404;" d="M122 197c27 29 42-80 83-33 41 48 105 107 153 92 49-15 82-96 107-67 0 33 0 115 0 148-36 46-44-52-117-39-73 13-72 36-101 57-36 26-51-61-99-45-40 13-76 50-86-1l0 142-15 0 0-390 418 0 0 15-403 0 0 89c9 1 37 7 60 32z"/>
<glyph glyph-name="sunburst-graph" unicode="&#57405;" d="M284 462c2-1 3-1 5-1 1 0 2 0 2 0 2 0 3 0 4 0 1 0 2 0 3 0 1-1 3-1 4-1 1 0 2 0 3 0 1 0 2-1 3-1 1 0 2 0 3 0 1-1 3-1 4-1 1 0 2 0 2 0 2-1 3-1 4-1 1-1 2-1 3-1 2 0 4-1 6-1 0 0 0-1 0-1 2 0 4-1 6-1 1 0 1-1 2-1 1 0 3-1 4-1 1 0 2-1 3-1 1-1 2-1 3-1 1-1 2-1 3-1 1-1 2-1 3-2 1 0 2 0 3-1 1 0 2-1 3-1 1-1 2-1 3-1 1-1 2-2 3-2 1-1 2-1 2-1 2-1 3-2 5-2 0-1 1-1 1-1 0 0 0 0 0 0l0 0 14 23c-32 18-69 28-106 29l0-27c0 0 1 0 1 0 0 0 1 0 1 0z m124-364l0 0c0 0-1 0-1-1-1-1-2-1-3-2-2-1-3-2-4-3-1-1-3-2-4-3-1-1-2-2-4-3-1 0-2-1-3-2-1-1-3-2-4-3-1 0-3-1-4-2-1-1-3-1-4-2-1-1-2-1-3-2-2-1-4-2-5-3-1 0-2-1-3-1-2-1-4-2-6-3-1 0-2 0-3-1-2-1-4-2-7-3-1 0-1 0-2-1-2-1-5-1-7-2-1-1-2-1-3-1-2-1-4-1-6-2-1 0-2-1-3-1-2 0-4-1-5-1-2 0-3-1-4-1-2 0-4-1-5-1-1 0-3 0-4-1-2 0-3 0-5-1-1 0-3 0-4 0-2 0-3 0-5-1-1 0-3 0-4 0-2 0-3 0-5 0-1 0-3-1-4-1-1 0-1 0-2 0l0-27c53 2 104 21 144 55z m-338 164c0 1 0 1 0 1 0 1 0 1 0 2 1 2 1 3 1 5 0 0 0 1 0 2 0 2 0 3 0 4 0 1 0 2 1 3 0 2 0 3 0 4 0 1 0 2 0 3 1 1 1 3 1 4 0 1 0 2 1 3 0 1 0 2 0 4 0 1 1 1 1 2 0 2 0 3 1 5 0 0 0 1 0 2 1 2 1 4 2 6 0 0 0 0 0 1 1 2 1 4 2 6 0 1 1 1 1 2 0 1 1 3 1 4 1 1 1 2 1 3 1 1 1 2 2 4 0 0 0 1 1 2 0 1 1 3 1 4 1 1 1 2 1 2 1 2 1 3 2 4 0 1 1 2 1 3 1 1 2 2 2 3 1 1 1 2 1 3 1 1 2 2 3 4 0 0 0 1 1 2 0 0 0 0 0 0l-23 14c-20-33-31-72-32-111z m193-211c-2 0-4 0-5 0-2 0-4 0-5 1-2 0-3 0-5 0-2 0-4 1-5 1-2 0-3 0-5 1-2 0-3 0-5 1-2 0-3 0-4 1-2 0-4 1-6 1-1 1-2 1-3 1-3 1-5 1-7 2-1 0-2 1-2 1-3 1-5 2-8 3 0 0-1 0-1 0-3 1-6 2-8 3 0 1-1 1-1 1-3 1-5 2-8 4 0 0-1 0-1 0-2 1-5 3-8 4 0 0 0 0 0 0-3 2-5 3-8 5 0 0 0 0 0 0-3 2-5 3-8 5 0 0 0 0-1 1-2 1-4 3-6 4-1 1-1 1-1 1-2 2-5 3-7 5 0 0-1 1-1 1-2 2-4 3-5 5l0 0-5 4-5 5 0 0c-1 2-3 3-5 5 0 0 0 1-1 1-26 29-43 63-49 101-1 0-1 1-1 2 0 2-1 5-1 7 0 1 0 2 0 3-1 2-1 5-1 7 0 1 0 3 0 4 0 2-1 4-1 6 0 0 0 1 0 2l-27 0c4-124 103-223 227-227l0 27c-1 0-2 0-2 0-2 1-4 1-5 1z m28 363c0 0 0 0 0 0 3 0 6 0 8-1 1 0 1 0 2 0 2 0 5-1 7-1 1 0 1 0 2 0 2-1 5-2 8-2 0 0 0 0 0 0 2-1 5-2 7-3 1 0 1 0 2 0 2-1 5-2 7-3 0 0 1 0 1 0 3-1 5-2 8-3 0-1 0-1 0-1 3-1 5-2 7-3 0 0 1 0 1-1l17 30c-2 1-4 1-5 2-1 1-2 1-2 1-1 1-3 1-4 2-1 0-1 1-2 1-1 0-2 1-3 1-1 1-2 1-3 1-1 1-2 1-3 2-1 0-2 0-2 1-1 0-3 0-4 1-1 0-1 0-2 1-1 0-3 0-4 1 0 0-1 0-2 1-2 0-3 1-5 1 0 0-1 0-1 0-2 1-3 1-5 2-1 0-2 0-2 0-2 0-3 1-4 1-1 0-2 0-3 0-1 1-2 1-3 1-1 0-2 0-3 0-1 1-2 1-3 1-1 0-2 0-3 0-1 1-2 1-3 1-1 0-2 0-3 0-1 0-2 0-3 0-1 0-2 0-3 1-1 0-3 0-5 0 0 0 0 0-1 0l0-34c1 0 1 0 1 0 3 0 5 0 8-1z m-195-88c0-1-1-2-1-3 0-1-1-2-1-3 0-1-1-2-1-3-1-1-1-2-1-3-1-1-1-3-1-4 0-1-1-2-1-3 0-1-1-2-1-3 0-1 0-2-1-3 0-1 0-2 0-3-1-1-1-2-1-3 0-1 0-3-1-4 0-1 0-2 0-3 0-1-1-2-1-3 0-1 0-2 0-3 0-1-1-2-1-4 0-1 0-2 0-2 0-2 0-3 0-4 0-1 0-2-1-3 0-1 0-3 0-5 0 0 0-1 0-1 0 0 0-1 0-1l34 0c0 1 0 3 0 4 0 0 0 1 0 1 0 2 0 4 1 5 0 0 0 1 0 1 0 1 0 3 0 5 0 0 0 1 1 2 0 1 0 2 0 3 0 1 0 2 0 2 1 1 1 2 1 3 0 1 0 2 1 3 0 1 0 2 0 3 0 0 1 1 1 2 0 1 0 2 1 3 0 1 0 1 0 2 1 1 1 2 1 3 0 1 1 1 1 2 0 1 1 2 1 3 0 1 0 1 1 2 0 1 0 2 1 3 0 1 0 1 1 2 0 1 0 2 1 3 0 1 0 1 1 2 0 1 1 2 1 3 0 1 1 1 1 2 0 1 1 2 1 3 1 0 1 1 1 2 1 1 2 2 2 3 0 0 0 0 0 0l0 0 4 6 3 5 0 0c0 0 0 1 0 1 1 1 2 1 2 2 1 1 1 2 2 2 0 1 1 2 1 2 1 1 1 2 2 2 0 1 1 2 1 2 1 1 1 2 2 2 0 1 1 1 2 2 0 1 1 1 1 2 1 1 1 1 2 2 0 0 1 1 2 2 0 0 1 1 1 1 1 1 1 2 2 2 1 1 1 1 2 2 0 1 1 1 2 2 0 0 1 1 1 1 1 1 2 1 2 2 1 1 1 1 2 2 1 0 1 1 2 1 1 1 1 1 2 2 1 0 1 1 2 1 0 1 1 1 2 2 0 0 1 1 2 1 0 1 1 1 2 2 0 0 1 1 2 1 0 0 1 1 2 1 1 1 1 1 2 2 1 0 1 1 2 1 1 0 1 1 2 1 1 1 1 1 2 1 1 1 2 1 2 2 1 0 2 0 3 1 0 0 1 1 2 1 0 0 1 1 2 1 1 0 1 1 2 1 1 0 2 1 2 1 1 0 2 1 2 1 1 0 2 1 3 1 1 0 1 1 2 1 1 0 2 1 3 1 0 0 1 0 2 1 0 0 1 0 2 1 1 0 2 0 2 0 1 1 2 1 3 1 1 0 1 1 2 1 1 0 2 0 3 1 1 0 1 0 2 0 3 1 6 2 9 2 1 0 1 0 2 0 1 1 2 1 3 1 1 0 1 0 2 0 1 1 2 1 3 1 1 0 1 0 2 0 1 0 2 0 3 0 1 0 2 1 2 1 1 0 2 0 3 0 1 0 2 0 2 0 1 0 2 0 3 0l0 34c-65-2-124-36-158-91-1-2-2-4-3-6-1-1-1-1-1-2-1-1-2-2-3-4 0 0 0-1-1-2 0-1-1-2-1-3-1-1-1-2-2-3 0-1-1-2-1-3-1-1-1-2-1-3-1-1-1-2-2-3 0-1 0-2-1-3z m276 82l-10-18c1 0 1-1 2-1 1-1 1-1 2-1 1-1 1-2 2-3 1 0 1 0 2 0 1-1 2-2 4-3 0-1 0-1 0-1 1-1 2-2 4-3 0 0 1 0 1-1 1 0 2-1 2-2 1 0 1-1 2-1 1-1 1-2 2-2 1-1 1-1 2-2 0 0 1-1 2-2 0 0 1-1 1-1 1-1 1-2 2-2 1-1 1-1 2-2 0-1 1-1 1-2 1-1 1-1 2-2 0 0 1-1 2-2 0 0 1-1 1-2 1 0 1-1 2-2 0 0 1-1 1-1 1-1 1-2 2-3 0 0 1-1 1-1 1-1 1-2 2-3 0 0 0-1 1-2 0 0 1-1 1-2 1-1 1-1 1-2 1-1 2-2 2-3 1-1 1-1 2-2 0-1 1-2 1-3 1-1 1-1 1-2 1-1 1-2 2-3 0 0 0-1 1-2 0 0 0-1 1-2 0-1 0-2 1-2 0-1 0-2 1-3 0 0 0-1 1-2 0-1 0-1 1-2 0-1 0-2 0-2 1-1 1-2 1-3 1-1 1-1 1-2 0-1 1-2 1-3 0 0 0-1 0-2 1-1 1-2 1-2 0-1 1-2 1-3 0-1 0-1 1-2 0-1 0-2 0-2 0-1 0-2 1-3 0-1 0-2 0-2 0-1 0-2 1-3 0-1 0-2 0-2 0-2 0-3 1-4 0-1 0-1 0-1 0-2 0-3 0-5 0-1 0-1 0-2 1-1 1-2 1-3 0-1 0-1 0-2 0-1 0-2 0-3l34 0c-2 64-36 123-90 157z m-90-311l0-34c1 0 1 0 2 0 1 0 2 0 3 0 2 1 3 1 5 1 1 0 3 0 4 0 1 0 3 0 5 1 1 0 2 0 3 0 2 0 3 1 5 1 1 0 2 0 3 1 2 0 4 0 5 1 1 0 3 0 4 0 1 1 3 1 5 2 1 0 2 0 3 0 2 1 3 2 5 2 1 0 2 1 3 1 2 1 5 2 8 3 0 0 0 0 0 0 2 1 5 2 7 3 1 0 2 1 3 1 2 1 3 2 5 2 1 1 2 1 3 2 1 1 3 1 4 2 1 1 2 1 3 2 2 1 3 1 5 2 1 1 2 2 3 2 1 1 3 2 4 3 1 0 2 1 3 2 1 1 3 2 4 3 1 0 2 1 3 2 1 1 2 2 4 3 1 1 2 1 2 2 1 0 1 1 1 1l-2 3-20 22c0 0 0 0 0 0-1-1-2-1-2-2-1-1-3-2-4-3-1 0-1-1-2-1-1-1-2-2-4-3 0 0-1-1-2-1-1-1-2-2-3-2-1-1-2-1-3-2-1 0-2-1-3-2-1 0-2-1-3-1-1-1-2-2-3-2-1-1-2-1-3-1-1-1-3-2-4-2-1-1-1-1-2-1-4-2-8-4-13-5-1 0-1 0-2-1-1 0-3-1-4-1-1 0-2-1-3-1-1 0-3 0-4-1-1 0-2 0-3 0-1-1-2-1-4-1-1 0-2-1-3-1-1 0-2 0-4 0-1-1-1-1-2-1-2 0-3 0-5 0 0 0-1 0-2-1-2 0-3 0-5 0-1 0-1 0-2 0 0 0 0 0-1 0z m153 153c0-1 0-1 0-1 0-2 0-3 0-4 0-1-1-3-1-5 0-1 0-2 0-3 0-1 0-3-1-5 0-1 0-2 0-3 0-1-1-3-1-5 0-1-1-2-1-3 0-1-1-3-1-4 0-1 0-3-1-4 0-1-1-3-1-4 0-1-1-2-1-3-1-2-1-4-2-5 0-1 0-2-1-3-2-5-4-10-6-14-1-1-1-2-1-3-1-1-2-3-3-4-1-1-1-2-2-3 0-1-1-3-2-4-1-1-1-2-2-3-1-1-2-2-3-4 0-1-1-2-2-2-1-2-2-3-3-4 0-1-1-2-2-3-1-1-2-2-3-3-1-1-1-2-2-3-1-1-2-2-3-3-1-1-2-2-3-3 0 0 0 0 0 0l20-24 2-2c37 35 58 83 60 134l-34 0z m-287 77c-1-2-2-4-4-7 0 0 0 0 0 0-1-2-2-5-3-7 0 0 0-1 0-1-1-3-2-5-3-7 0-1 0-1-1-2 0-2-1-4-2-7 0 0 0 0 0 0-1-2-1-5-2-7 0-1 0-1 0-2-1-2-1-5-1-7-1 0-1-1-1-1 0-3 0-5-1-8 0 0 0 0 0 0 0-3 0-5 0-8 0 0 0 0 0-1l42 0c0 1 0 1 0 1 0 0 0 1 0 1 0 2 0 4 1 6 0 0 0 1 0 2 0 1 0 3 1 4 0 1 0 2 0 2 1 4 2 9 4 13 0 0 0 1 0 2 1 1 2 3 2 4 0 1 1 1 1 2 1 2 1 3 2 5 0 0 1 0 1 1 0 0 0 0 0 0l-36 23c0-1 0-1 0-1z m117-175c-1 0-2 1-3 1-1 0-2 0-2 0-2 0-3 1-5 1 0 0-1 0-1 0-2 0-3 1-4 1 0 0-1 0-2 1-1 0-2 0-3 0 0 1-1 1-2 1-1 0-1 1-2 1-1 0-2 0-2 1-1 0-2 0-3 1-1 0-1 0-2 1-1 0-1 0-2 1-1 0-2 0-2 1-1 0-2 0-3 1 0 0-1 1-2 1 0 0-1 1-2 1-1 1-1 1-2 1-1 1-1 1-2 2-1 0-1 1-2 1-1 1-1 1-2 1-1 1-1 1-2 2-1 0-1 1-2 1 0 1-1 1-2 2 0 0-1 1-2 2 0 0-1 1-1 1-1 1-2 1-2 2-1 1-2 2-3 3-1 0-1 1-2 2-1 0-1 1-2 2 0 0-1 1-1 1-1 1-1 2-2 2 0 1-1 2-1 2-1 1-1 1-2 2 0 1-1 1-1 2 0 1-1 1-1 2-1 1-1 1-2 2 0 1 0 2-1 2 0 1-1 2-1 2-1 1-1 2-1 2-1 1-1 2-1 3-1 0-1 1-1 2-1 1-1 1-1 2-1 1-1 2-1 2-1 1-1 2-1 3-1 0-1 1-1 2 0 1-1 2-1 2 0 1-1 2-1 3 0 0 0 1-1 2 0 1 0 2 0 2 0 1-1 2-1 4 0 0 0 1 0 1-1 2-1 3-1 5 0 1 0 1 0 2 0 1-1 2-1 3 0 1 0 1 0 2 0 1 0 2 0 3l-42 0c0-1 0-1 0-1 0-1 0-3 0-4 0-1 0-2 0-3 0-2 1-3 1-5 0-1 0-1 0-2 0-2 1-4 1-6 0 0 0 0 0 0 5-27 18-52 36-71 0-1 0-1 0-1 1-1 3-3 4-4 0 0 1-1 1-1 2-1 3-3 4-4 0 0 1 0 1-1 1-1 3-2 4-3 0 0 1-1 1-1 1-1 3-2 4-4 1 0 1 0 1 0 14-10 30-19 47-24 0 0 1 0 1 0 2 0 4-1 6-1 1-1 1-1 2-1 1 0 3-1 5-1 1 0 2 0 3 0 1-1 2-1 3-1 1 0 3 0 4 0 1 0 2-1 3-1 1 0 3 0 4 0 1 0 2 0 3 0 0 0 0 0 1 0l0 42c-1 0-2 0-3 0-1 0-1 0-2 0z m-74 164c0 1 1 1 1 2 1 1 2 2 3 3 0 1 1 2 1 2 1 1 2 2 3 3 1 1 1 1 2 2 1 1 1 2 2 3 1 0 2 1 2 2 1 0 2 1 3 2 1 1 1 1 2 2 1 0 2 1 3 2 1 1 1 1 2 1 1 1 2 2 3 3 1 0 1 1 2 1 2 1 3 2 5 3 0 0 0 0 0 0 2 1 4 2 6 3 0 0 1 1 2 1 1 0 2 1 3 1 1 1 2 1 3 1 1 1 2 1 3 2 1 0 2 0 3 0 1 1 2 1 3 1 1 1 2 1 3 1 1 0 2 1 3 1 1 0 2 0 3 0 1 1 2 1 4 1 0 0 1 0 2 0 2 1 3 1 5 1 0 0 1 0 1 0 0 0 0 0 1 0l0 42c-1 0-1 0-1 0-3 0-5 0-8 0 0 0 0 0-1 0-5-1-10-2-16-3 0 0 0 0 0 0-3-1-5-1-8-2 0 0 0 0-1 0-2-1-4-2-7-3 0 0 0 0-1 0-2-1-4-2-7-3 0 0 0 0-1 0-2-1-4-2-7-3 0 0 0 0 0 0-5-3-10-5-14-8 0 0 0 0-1 0-2-2-4-3-6-5 0 0-1 0-1 0-2-2-4-3-6-5 0 0 0 0-1-1-2-1-3-3-5-4 0-1-1-1-1-1-2-2-4-4-5-5-1-1-1-1-1-1-2-2-4-4-5-6 0 0 0 0 0 0-2-2-4-4-6-6 0 0 0 0 0-1-2-2-3-4-5-6 0 0 0 0 0-1l36-22c0 0 0 0 0 0z m98-206c1 0 1 0 2 0 1 1 3 1 4 1 1 0 2 0 3 0 1 0 2 1 3 1 1 0 2 0 3 0 1 1 2 1 4 1 0 0 1 0 2 1 1 0 3 0 4 1 1 0 1 0 2 0 2 1 3 1 4 2 1 0 2 0 2 0 4 1 8 3 12 5 0 0 1 0 2 0 1 1 2 2 4 2 0 1 1 1 2 1 1 1 2 1 3 2 1 0 2 1 2 1 1 1 3 2 4 2 0 1 1 1 2 1 1 1 2 2 3 3 1 0 1 0 2 1 1 1 2 1 3 2 1 1 2 1 2 2 2 1 3 2 4 3 1 0 1 0 1 0 0 1 0 1 0 1l-28 31c0 0-1-1-1-1-1-1-1-1-1-1-3-2-5-3-8-5 0 0 0 0-1-1-1 0-2-1-3-1 0 0 0-1-1-1-1 0-2-1-2-1-1 0-1-1-2-1-1 0-2-1-3-1 0 0 0-1-1-1-1 0-3-1-4-1-1-1-3-1-4-2-1 0-1 0-1 0-1-1-2-1-3-1-1 0-1 0-2-1-1 0-2 0-3 0 0 0-1-1-1-1-1 0-2 0-3 0-1 0-1 0-1-1-2 0-3 0-5 0 0 0 0 0 0 0-1 0-3-1-4-1-1 0-1 0-1 0-1 0-2 0-3 0l0-42c0 0 0 0 1 0 0 0 1 0 1 0 2 0 3 0 5 0z m-5 250c2 0 3 0 5-1 1 0 1 0 2 0 1 0 3 0 4-1 1 0 2 0 2 0 2 0 4-1 6-1 0 0 0 0 0 0 2-1 4-2 6-2 1 0 1-1 2-1 1 0 3-1 4-1 1-1 1-1 2-1 2-1 3-2 5-2 0-1 0-1 1-1 0 0 0 0 0 0l10 16 11 20c0 1 0 1 0 1-3 1-5 2-7 3 0 0 0 0 0 0-2 1-4 2-7 3 0 0 0 0-1 0-2 1-4 2-6 3-1 0-1 0-2 0-4 2-9 3-14 4 0 0-1 0-1 0-2 1-5 1-7 2 0 0-1 0-1 0-3 0-5 0-8 1 0 0 0 0 0 0-2 0-4 0-7 0 0 0 0 0-1 0l0-42c0 0 1 0 1 0 0 0 0 0 1 0z m138-97c0 3 0 5 0 8 0 0-1 0-1 1 0 2 0 5-1 8 0 0 0 0 0 0 0 3-1 5-1 8 0 0 0 0 0 1-1 2-2 5-2 7 0 1-1 1-1 1 0 3-1 5-2 8 0 0 0 0 0 1-1 2-2 4-3 7 0 0-1 0-1 1-1 2-2 5-3 7 0 0 0 0 0 1-3 4-5 9-8 14-1 0-1 0-1 0-1 2-3 5-4 7 0 0-1 0-1 1-1 2-3 4-5 6 0 0 0 0 0 0-2 2-4 4-5 6-1 0-1 1-1 1-2 2-4 4-6 5 0 1 0 1 0 1-2 2-4 4-6 5 0 0 0 0 0 0-3 2-5 4-7 6 0 0 0 0-1 0-2 2-4 3-6 5 0 0 0 0-1 0l-21-36c0-1 0-1 0-1 1 0 1 0 2-1 1-1 2-1 4-2 0-1 1-1 1-2 1-1 2-2 3-3 1 0 2-1 2-1 1-1 2-2 3-3 1-1 1-1 2-2 1-1 2-2 3-3 0 0 1-1 1-2 1-1 2-2 3-3 0 0 1-1 1-2 1-1 2-2 3-3 0-1 1-1 1-2 1-2 2-3 3-5 0 0 0 0 0 0 1-2 2-4 3-6 1 0 1-1 1-2 1-1 1-2 2-4 0 0 1-1 1-2 0-1 1-2 1-4 1 0 1-1 1-2 0-1 1-2 1-4 0-1 1-1 1-2 0-2 0-3 1-4 0-1 0-2 0-3 1-1 1-2 1-3 0-1 0-2 0-3 1-1 1-3 1-5 0 0 0-1 0-1 0 0 0-1 0-1l42 0c0 1 0 1 0 1z m-32-98c1 1 2 2 3 3 1 1 1 2 2 3 1 1 2 2 2 3 1 1 2 2 2 3 1 1 2 2 2 4 1 1 1 1 2 2 1 2 1 3 2 5 1 0 1 1 1 2 3 4 5 8 6 13 1 1 1 1 1 2 1 2 1 3 2 5 0 1 0 2 1 2 0 2 1 3 1 5 0 1 0 2 1 3 0 1 0 2 1 4 0 1 0 2 0 3 1 1 1 3 1 4 0 1 0 2 1 3 0 2 0 3 0 5 0 0 0 1 1 2 0 2 0 4 0 5 0 1 0 2 0 3 0 0 0 0 0 1l-42 0c0-2 0-3 0-5 0 0 0 0 0 0-1-2-1-3-1-5 0-1 0-1 0-2-1-1-1-2-1-3 0-1 0-2 0-2-1-1-1-2-1-3 0-1-1-2-1-2 0-1 0-2-1-3 0-1 0-1 0-2-1-1-1-2-1-3-1-1-1-1-1-2-1-1-1-3-2-4 0-1 0-1 0-1-1-1-1-3-2-4 0-1-1-1-1-2 0-1-1-2-2-3 0 0 0-1-1-1 0-1-1-2-1-3-1-1-1-1-1-2-1-1-2-2-2-2-1-1-1-2-1-2-1-1-2-2-2-3-1 0-1-1-1-1-2-1-3-3-4-4 0 0 0 0 0 0-1-1-2-2-3-3l14-16 14-16c0 0 0 0 1 1 0 0 1 1 2 2 1 1 2 2 3 3 0 1 1 1 2 2 1 1 2 2 3 4 0 0 1 1 1 2z m-23 91c0 32-17 63-45 79-10 6-22 10-34 12-4 0-8 0-12 0-32 0-61-16-78-43-9-14-13-31-13-48 0-50 41-91 91-91 22 0 44 8 61 23 19 17 30 42 30 68z m-248-24c-1 2-1 4-1 7 0 0 0 1 0 1-1 2-1 4-1 6 0 1 0 2 0 3 0 0 0 0 0 1l-34 0c0-1 0-2 0-2 0-2 0-3 0-4 1-2 1-4 1-6 0-1 0-2 0-3 0-3 1-5 1-7 0-1 0-1 0-2 7-41 26-77 53-105l24 24c-23 24-38 54-43 86 0 1 0 1 0 1z m147-135c-2 0-3 0-5 1-1 0-2 0-3 0-1 0-3 0-5 0 0 1-1 1-2 1-2 0-4 0-6 1 0 0-1 0-1 0-5 1-10 2-15 4 0 0-1 0-1 0-2 1-4 2-6 2-1 0-1 1-1 1-2 1-5 1-7 2 0 0 0 0 0 1-3 0-5 1-7 3 0 0 0 0 0 0-13 6-25 13-35 23l-24-24c13-12 28-22 44-30 0 0 0 0 1 0 2-1 5-2 8-4 0 0 0 0 0 0 3-1 5-2 8-3 0 0 1 0 1 0 3-1 5-2 8-3 0 0 1 0 1 0 6-2 12-4 18-5 0 0 1 0 1 0 3-1 5-1 8-2 1 0 2 0 3 0 2 0 4-1 6-1 1 0 2 0 3 0 2 0 4 0 6-1 1 0 2 0 4 0 0 0 1 0 2 0l0 34c-1 0-1 0-1 0-1 0-2 0-3 0z"/>
<glyph glyph-name="weight" unicode="&#57406;" d="M453 354c0-4 0-9 0-14-1-3-2-7-2-10-1-18-3-37-4-55-4-51-9-101-13-152-1-15-1-31-4-46-2-20-16-31-34-37-94 0-187 0-280 0-3 1-6 2-8 3-16 6-25 18-27 34-4 45-8 91-11 136-4 43-7 86-11 128-2 27 16 48 43 49 11 0 22 0 34 0 7-1 10 1 13 9 15 36 41 60 80 70 5 1 10 2 16 3 8 0 16 0 24 0 0 0 1-1 1-1 46-7 77-33 94-76 1-2 5-5 8-5 13-1 26 0 38 0 18-1 31-9 38-25 2-3 3-7 5-11z m-114 4c0 46-37 83-83 83-46 0-83-36-83-83-1-46 37-84 83-84 46 1 83 38 83 84z m-29 37c-4-5-5-9-8-13-11-13-23-26-34-39-5-5-12-7-19-4-7 3-11 7-12 15-1 8 1 14 9 18 18 8 36 15 54 23 2 0 5 0 10 0z"/>
<glyph glyph-name="smart-plug" unicode="&#57407;" d="M410 341c0 83-54 145-136 155-92 12-172-58-173-151 0-59 0-119 0-178 0-69 45-128 112-146 9-3 19-5 29-7 9 0 18 0 27 0 3 1 6 2 9 2 70 9 128 68 131 138 3 62 1 125 1 187z m-25-186c-4-65-62-116-129-116-67 0-126 51-129 115-3 65-1 130-1 196 0 11 2 22 6 33 17 58 76 96 136 89 65-7 113-54 117-116 2-33 0-67 0-101 0 0 0 0 0 0 0-33 2-67 0-100z m-128 196c15 0 26 12 26 27-1 15-12 27-27 27-15 0-27-13-27-28 0-15 12-26 28-26z m0-68c-56 0-99-42-99-97 0-55 43-99 97-99 55 0 99 43 99 98 0 55-43 98-97 98z m-25-103c-4 0-8 0-13 0 0 14 0 28 0 43 5 0 9 0 13 0 0-15 0-29 0-43z m39-48c-10 0-19 0-29 0 0 10-3 20 7 25 4 2 10 2 14 0 10-5 8-15 8-25z m21 48c-4 0-8 0-13 0 0 14 0 28 0 43 5 0 8 0 13 0 0-15 0-29 0-43z"/>
<glyph glyph-name="dishwasher-quick45" unicode="&#57408;" d="M151 488c24 0 48 0 72 0 12 0 15-3 13-15-8-57-16-115-24-172-2-11-6-14-17-14-30 0-60 0-90-1-9 0-14 4-17 12-2 8-4 15-5 23-4 27-7 55-11 83-3 24-6 48-9 72-1 8 4 12 14 12 24 0 49 0 74 0z m64-21c-44 0-87 0-130 0 1-7 1-13 2-19 6-42 11-85 17-127 0-4 2-5 6-5 26 0 52 0 78 0 4 0 5 1 6 5 2 19 5 37 8 56 4 30 9 60 13 90z m43-273c-32 0-63 1-95 0-24-1-46 7-65 22-14 11-28 22-41 33-4 3-5 12-2 16 6 7 11 9 17 6 3-1 5-3 8-4 17-12 35-25 53-37 6-4 12-6 19-6 69 0 139-1 209 0 4 0 9 1 12 3 19 13 38 26 56 39 3 1 5 4 7 4 5 1 11 2 15 0 6-2 9-9 7-16 0-1-1-3-2-4-20-17-39-33-62-46-11-7-24-10-37-10-33 0-66 0-99 0z m151 200c11 0 20 0 30 0 6 0 10-3 10-10 0-14 0-27 0-41 0-3-2-6-4-8-8-8-18-10-29-9-5 1-7-1-9-6-3-8-6-16-11-23-4-7-10-11-19-11-28 1-55 1-83 0-7 0-12 3-16 8-8 10-15 21-14 35 0 25 0 49 0 74 0 8 3 11 11 11 40 0 80 0 120 0 11 0 14-3 14-14 0-2 0-4 0-6z m-20-1c-36 0-70 0-105 0 0-23 0-45 1-67 0-8 2-10 10-10 26 0 52 0 79 0 10 0 15 5 15 15 0 6 0 12 0 17 0 15 0 30 0 45z m21-20c0-9 0-17 0-26 5 0 9-1 13 0 2 1 5 3 6 5 0 7 0 14 0 21-7 0-13 0-19 0z m13-282c-9 11-19 22-28 33-3 3-6 8-8 12-5 7-4 12 1 17 4 4 12 5 18 1 5-3 9-7 13-12 11-12 21-24 31-36 2-2 3-4 5-6 4-6 5-13-1-19-15-17-30-35-46-52-2-3-6-4-9-5-6-1-11 1-13 7-3 5-3 10 1 16 12 14 24 29 36 44z m-74 0c-12 14-23 28-35 41-5 7-5 17 2 22 4 3 15 3 18 0 15-17 30-35 45-52 1-2 3-5 3-7 1-4 2-10-1-12-14-18-29-35-43-52-3-3-7-6-11-7-5-1-12-1-14 5-3 7-4 13 1 19 12 14 23 28 35 43z"/>
<glyph glyph-name="dishwasher-auto" unicode="&#57409;" d="M67 229l-16-49-21 0 53 155 24 0 53-155-21 0-17 49z m51 15l-15 45c-4 10-6 19-8 28l-1 0c-2-9-4-19-7-28l-16-45z m155-34c0-11 0-21 0-30l-17 0-2 18 0 0c-5-9-17-21-37-21-17 0-38 10-38 49l0 65 20 0 0-62c0-21 6-35 25-35 13 0 23 9 26 18 2 3 2 7 2 11l0 68 21 0 0-81z m58 113l0-32 28 0 0-15-28 0 0-60c0-14 3-22 15-22 5 0 9 1 11 1l1-15c-4-1-10-3-18-3-9 0-17 3-21 9-6 6-8 16-8 29l0 61-18 0 0 15 18 0 0 27z m151-87c0-41-29-59-56-59-30 0-53 22-53 57 0 38 24 60 55 60 32 0 54-24 54-58z m-89-1c0-24 14-43 34-43 19 0 34 19 34 44 0 19-10 42-33 42-24 0-35-22-35-43z"/>
<glyph glyph-name="dishwasher-eco" unicode="&#57410;" d="M180 252l-60 0 0-55 67 0 0-17-87 0 0 154 83 0 0-16-63 0 0-49 60 0z m110-68c-6-2-17-6-32-6-33 0-55 23-55 56 0 34 23 59 59 59 12 0 23-3 28-6l-4-15c-5 3-13 5-24 5-25 0-39-19-39-42 0-25 17-41 39-41 11 0 19 3 24 5z m122 52c0-40-28-58-55-58-30 0-53 22-53 57 0 37 24 58 55 58 32 0 53-23 53-57z m-88-1c0-24 14-42 34-42 19 0 34 18 34 43 0 19-10 42-34 42-23 0-34-22-34-43z"/>
<glyph glyph-name="aborting" unicode="&#57411;" d="M263 486c4 0 8 0 12 0 16-7 21-19 21-35-1-51-1-102 0-153 0-3-1-6 0-8 2-3 5-7 7-7 3 0 7 2 9 5 2 3 1 7 1 11 0 37 0 74 0 111 0 11 0 22 1 32 0 17 13 28 30 26 13-2 22-13 22-29 0-53 0-107 0-160 0-7 0-14 10-14 8 0 8 7 8 14 0 35 0 71 0 107 0 17 11 29 26 29 16 0 27-12 27-29 0-80 1-159 0-239-1-37-13-69-42-93-23-19-49-26-78-27-66-4-122 13-159 73-22 36-46 71-70 106-3 6-7 11-10 17-7 15-3 31 10 40 12 9 29 7 41-4 4-4 8-10 12-15 10-13 19-26 29-39 0 1 1 1 1 1 0 4 0 8 0 11 0 67 0 135 0 202 0 19 11 32 27 31 17 0 27-14 27-31-1-35-1-71-1-106 0-7-1-15 1-22 1-3 5-7 9-8 2 0 6 5 8 8 1 2 0 5 0 8 0 51 1 102 0 154 0 16 6 27 21 33z"/>
<glyph glyph-name="dryer-cotton" unicode="&#57412;" d="M234 79c-15 2-31 4-47 6-64 11-96 55-89 119 1 3 0 8-2 10-60 59-37 153 44 175 14 4 23 10 31 23 19 35 51 49 90 47 39-1 68-20 85-55 3-8 7-11 15-12 65-13 102-72 84-134-5-17-14-31-27-42-3-3-5-9-5-13 7-69-31-114-101-120-7 0-14 0-20-2-9-1-18-3-18-16-1-8-9-12-18-12-9 0-16 2-19 11-1 4-2 9-3 15z m146 117c-8-38-23-69-53-95 44 8 70 36 72 78 0 10-1 20-2 30-1 6 0 9 5 13 29 20 37 50 31 83-8 42-39 68-85 73-7 1-10 4-12 10-12 32-35 50-68 53-34 4-66-3-82-35-11-20-25-27-45-33-35-8-56-33-63-68-5-34 3-63 32-84 3-2 4-7 4-11 0-11-2-23-1-35 2-39 33-71 70-73-29 25-45 56-51 94 39-5 67-26 95-53-3 40 8 73 29 103 20-31 31-64 29-103 28 28 56 48 95 53z"/>
<glyph glyph-name="dryer-mix" unicode="&#57413;" d="M293 220c-4-15-8-29-12-43-2-8-6-11-14-11-9 1-18 0-29 0 0-4 0-7 0-11 0-32 0-65 0-97 0-12-1-14-13-14-42 0-84 0-126 0-10 0-13 3-13 13 0 32 0 65 0 97 0 4 0 8 0 12-10 0-19 1-29 0-8 0-13 3-14 12-4 14-8 28-12 42 0 2 0 5 0 8 4 2 8 4 13 6 26 7 52 13 78 20 9 3 15 2 19-8 3-9 12-13 21-12 10 0 18 3 21 12 4 10 10 10 19 8 26-7 52-14 78-20 5-2 9-4 13-6 0-3 0-6 0-8z m-246-1c3-13 7-25 10-37 11 0 21-1 32-1 8 0 11-4 11-12 0-20 0-41 0-61 0-16 0-32 0-49 42 0 82 0 123 0 0 3 0 5 0 8 1 34 1 67 0 101 0 9 4 13 13 13 8-1 16-1 25 0 2 0 6 2 7 4 3 11 6 23 9 34-27 7-53 14-79 21-16-26-53-30-72 0-26-7-52-14-79-21z m421 227c-26 7-52 14-78 21-9 2-15 2-19-8-3-9-11-13-20-13-10 0-19 3-22 13-4 10-10 10-19 8-26-7-52-14-78-21-5-1-9-3-13-5 0-3 0-6 0-9 4-14 8-27 12-42 2-8 6-11 15-11 9 0 18 0 28 0 0-5 0-8 0-12 0-32 0-65 0-97 0-10 3-13 13-13 42 0 84 0 126 0 12 0 13 1 13 14 0 32 0 65 0 97 0 4 0 7 0 11 11 0 20 0 29 0 8 0 12 3 14 10 4 15 8 29 12 43 0 3 0 6 0 9-4 2-8 4-13 5z"/>
<glyph glyph-name="dryer-synthetic" unicode="&#57414;" d="M194 424c-3 1-5 1-6 1-13 1-21 11-21 23 1 12 11 21 22 21 45 0 89 0 134 0 12 0 21-9 22-21 1-12-8-22-20-23-2 0-4 0-7-1 0-1 0-3 0-4 0-39 0-79 1-118 0-3 1-7 3-9 45-63 91-126 138-189 8-12 12-24 7-38-4-14-18-23-33-23-118 0-236 0-355 0-14 0-25 6-32 18-7 13-6 25 2 37 17 24 35 48 52 72 30 41 60 82 90 124 2 2 3 4 3 7 0 40 0 80 0 119 0 2 0 3 0 4z m45 0c0-2 0-3 0-5 0-41 0-81-1-122 0-3-1-7-3-10-18-27-37-53-56-80 0-1-1-2-2-4 53 0 105 0 159 0-2 2-2 3-3 5-19 26-38 53-57 80-1 2-2 5-2 7 0 42 0 83 0 125 0 1 0 3 0 4-12 0-24 0-35 0z"/>
<glyph glyph-name="freezer-supercooling" unicode="&#57415;" d="M166 199c0-21 0-40 0-59 0-2 2-4 4-6 8-8 16-15 24-24 5-5 6-11 1-16-4-4-11-4-17 2-3 4-7 8-10 11-1 0-2 0-2-1 0-8 0-17 0-26 0-8-5-13-12-12-6 0-9 5-9 11 0 9 0 19 0 28-1 0-2 1-3 1-3-4-6-8-10-11-6-7-13-7-18-3-4 5-3 11 3 17 8 8 16 16 24 24 1 2 3 5 4 7 0 19 0 37 0 57-3-2-5-3-7-4-14-8-27-16-40-25-3-2-5-5-6-8-3-11-5-22-8-32-2-9-7-13-14-11-6 1-8 6-6 15 1 5 2 10 3 17-8-5-15-9-22-13-8-5-14-5-18 0-4 6-1 12 7 17 7 5 14 9 22 15-7 1-12 2-18 4-7 1-11 7-10 13 1 6 7 9 15 7 10-2 21-5 32-7 3-1 7-1 9 0 17 10 34 20 51 31-13 9-26 16-38 25-10 7-20 10-32 5-7-3-14-4-21-5-9-2-15 1-16 8-1 6 3 10 11 12 5 1 9 3 13 4 1 0 2 0 4 1-8 5-16 10-24 15-6 4-8 10-5 16 4 5 9 6 16 1 8-4 15-9 24-14-1 7-3 13-4 19-1 7 2 12 8 13 7 1 11-2 13-9 2-11 4-22 7-33 1-3 4-7 7-9 15-10 30-19 46-29 0 12-1 23 1 33 2 20-4 35-20 46-4 3-7 7-10 11-5 5-5 10 0 15 4 4 10 4 15 0 4-5 8-10 12-14 1 0 2 1 2 1 0 10 0 19 1 28 0 4 3 8 6 10 3 1 8 0 11-2 2-2 3-7 3-11 1-8 0-17 0-28 6 6 10 10 13 14 6 6 13 6 17 2 5-5 4-11-1-17-9-8-17-16-25-24-2-2-4-5-4-7 0-17 0-33 0-49 0-2 0-4 0-8 4 2 8 4 11 6 8 5 16 12 25 16 13 5 19 15 21 28 1 8 3 15 5 22 1 7 6 10 12 8 7-2 9-6 8-13-1-6-3-12-4-19 8 5 15 9 22 13 8 6 14 5 18-1 3-6 1-11-7-16-7-5-14-9-23-15 8-1 13-2 18-4 9-2 12-7 11-13-2-6-7-9-15-7-10 2-21 4-31 7-5 2-10 1-15-3-15-9-30-18-46-28 3-2 5-4 7-5 13-9 27-17 41-25 3-2 8-3 11-2 11 2 22 5 32 7 9 2 14-1 16-7 1-7-3-12-11-13-5-2-10-3-18-4 10-6 18-11 25-16 3-3 6-8 6-12 0-2-4-6-8-8-2-1-6 1-9 2-8 5-15 10-24 15 1-7 3-13 4-19 1-7-2-12-8-13-7-1-11 2-13 9-2 10-4 21-7 32-2 4-4 8-8 11-14 9-29 18-45 28z m237 126c0-14 0-27 1-41 0-1 1-3 2-4 6-5 11-11 17-17 4-4 4-8 1-11-3-3-8-3-12 1-2 3-5 6-7 8-1 0-1 0-2 0 0-7 0-13 0-19 0-5-3-9-8-9-4 1-6 4-6 8 0 7 0 13 0 20-1 0-2 1-2 1-3-3-5-6-7-8-5-5-10-5-13-2-3 3-2 7 2 12 6 5 11 11 17 17 1 1 2 3 2 5 1 13 1 26 1 39-2-1-4-1-5-2-10-6-19-12-28-18-2-1-4-3-5-6-2-7-3-15-5-22-1-6-5-9-10-8-4 1-6 5-4 11 0 4 1 7 2 12-6-4-10-7-15-10-6-3-10-3-13 1-2 4-1 8 5 12 5 3 10 6 16 10-5 1-9 2-13 3-5 1-8 5-7 9 1 4 4 6 10 5 8-2 15-4 23-5 2-1 5-1 6 0 12 7 24 14 36 22-10 6-19 11-27 17-7 5-14 7-22 4-5-2-10-3-15-4-6-1-10 1-11 6-1 4 2 7 8 9 3 0 6 1 9 2 0 0 1 0 2 1-6 3-11 7-16 10-5 3-6 7-4 11 3 4 7 4 12 2 5-4 10-7 16-11-1 6-2 10-3 14 0 5 2 8 6 9 5 1 8-2 9-6 2-8 3-16 5-23 1-3 3-6 5-7 10-7 21-13 32-21 0 9 0 17 1 24 1 14-3 24-14 33-3 2-5 4-8 7-2 3-3 7 0 10 4 3 8 3 11 0 3-3 6-6 8-10 1 1 2 1 2 1 0 7 0 14 1 20 0 3 2 6 4 7 2 1 6 0 8-1 1-2 2-5 2-8 0-6 0-12 0-19 4 4 6 6 9 9 4 4 9 4 12 1 3-3 3-7-1-11-6-6-12-12-17-17-2-2-3-4-3-6 0-11 0-22 0-33 0-2 0-4 0-7 3 2 5 4 8 5 5 4 11 8 17 11 9 4 13 11 15 20 0 5 2 10 3 15 1 5 4 7 9 6 4-1 6-5 5-9-1-4-2-9-3-14 6 4 11 7 16 10 6 3 10 3 12-1 3-4 1-8-4-11-5-4-10-7-16-11 5-1 9-2 12-2 6-2 9-5 8-10-1-4-5-6-11-5-7 2-14 3-21 5-4 1-8 1-11-2-10-6-21-13-32-20 2-1 3-2 4-3 10-6 19-12 29-18 2-1 6-2 8-1 8 1 15 3 23 5 6 1 10-1 11-5 1-5-2-8-8-9-4-1-7-2-12-3 6-4 12-7 17-11 2-2 4-6 4-8 0-2-3-5-5-6-2-1-5 0-7 2-5 3-10 6-17 10 1-5 2-9 3-13 1-6-1-9-5-10-5-1-8 2-9 7-2 7-3 15-6 22 0 3-2 6-5 8-10 6-20 13-32 19z"/>
<glyph glyph-name="freezer-temp" unicode="&#57416;" d="M270 231c0-27 0-53 1-78 0-3 2-5 5-8 10-10 21-21 31-31 7-8 8-16 2-22-6-6-15-5-22 3-5 4-10 10-14 15-1-1-2-1-3-2 0-11 1-23 0-34 0-11-6-18-15-17-9 1-13 7-13 15 1 13 0 25 0 37-1 1-2 1-3 2-4-5-9-11-13-16-8-8-18-9-24-3-5 6-4 14 4 23 10 10 21 20 31 31 3 3 5 7 5 10 1 24 0 49 0 74-3-2-6-3-9-4-17-11-35-22-53-33-3-3-7-7-8-12-4-14-6-28-10-42-2-11-9-16-18-14-8 2-11 9-9 20 2 7 3 13 5 22-11-6-20-12-29-17-11-7-19-7-24 1-5 8-2 15 9 22 9 6 18 12 30 19-10 2-17 3-24 5-10 3-15 9-14 17 2 9 9 13 19 10 15-3 29-6 44-10 4 0 9-1 12 1 22 13 44 27 67 41-18 12-35 21-51 33-13 9-26 13-42 6-9-3-18-4-28-6-11-3-19 1-21 10-1 8 4 14 15 17 6 1 12 3 17 4 1 0 2 1 5 2-11 7-21 13-31 19-9 6-12 14-7 22 5 6 12 7 22 2 9-6 19-12 31-19-2 9-4 17-5 24-2 10 2 17 10 18 9 2 15-3 17-12 3-14 6-29 10-43 1-5 5-10 9-13 19-13 39-25 61-38 0 16-2 30 0 44 4 26-4 46-25 61-5 4-10 10-14 15-6 6-6 13 0 19 6 6 13 6 20-1 5-5 10-12 16-18 1 1 2 1 3 2 0 12-1 25 1 37 0 5 4 11 8 13 4 2 11 0 14-3 3-3 4-9 4-14 1-11 1-22 1-36 7 7 12 12 17 18 8 7 17 8 22 2 6-7 5-14-2-22-11-11-22-21-32-32-3-3-5-7-5-10-1-21-1-42-1-64 0-3 0-6 0-11 6 3 11 6 15 8 11 7 21 16 33 21 17 8 25 20 27 38 1 10 4 19 7 29 2 8 8 12 17 10 8-2 11-8 9-17-1-8-3-16-5-26 11 7 20 13 29 19 11 6 19 6 24-2 5-8 2-15-9-22-9-6-18-12-30-19 10-2 17-4 24-5 11-3 16-9 13-18-1-8-9-12-19-9-14 2-27 5-40 9-8 2-14 1-21-3-20-13-40-25-61-38 4-3 7-5 9-6 18-12 36-23 54-34 5-2 11-3 16-2 14 2 28 6 42 9 11 3 19-1 21-9 1-9-4-15-15-18-6-2-13-3-23-5 12-8 23-14 33-21 4-3 7-10 7-15 0-4-5-9-10-11-3-1-8 1-12 3-10 6-20 12-32 20 2-10 4-18 5-25 2-10-2-17-10-18-9-2-14 3-17 12-3 14-6 28-10 42-1 5-5 11-10 14-19 13-38 25-60 38z"/>
<glyph glyph-name="fridge-supercooling" unicode="&#57417;" d="M249 313c0-32 0-64 0-96 1-5 3-11 6-14 31-31 38-76 16-113-21-36-64-53-105-42-40 12-67 50-66 93 1 23 11 43 27 61 4 4 7 11 7 16 1 63 0 126 0 189 1 37 27 62 61 60 30-1 54-25 54-56 1-33 0-65 0-98 0 0 0 0 0 0z m-19-4c0 33 0 67 0 100 0 23-17 39-38 39-23 0-38-17-38-42 0-64 0-128 0-192 0-10-2-17-10-24-16-13-24-30-25-50-1-35 21-65 55-74 31-8 65 6 81 36 17 30 11 67-16 89-7 6-9 12-9 21 0 32 0 65 0 97z m-17-75c0-12 1-25 0-38 0-7 2-11 8-15 22-14 30-39 23-62-7-22-29-38-52-38-24 1-45 16-52 40-7 22 2 46 22 60 7 4 9 8 9 16 0 25 0 50 0 76 0 16 8 25 21 25 13 0 21-9 21-25 0-13 0-26 0-39z m128 105c0-12 0-24 0-35 0-1 1-3 2-4 5-4 10-9 14-14 4-3 4-7 2-10-3-2-7-2-11 1-2 3-4 5-6 7 0 0-1 0-1 0 0-6 0-11 0-16 0-5-3-8-7-8-4 1-6 3-6 7 0 6 0 11 0 17 0 0-1 1-1 1-2-3-4-5-6-7-4-4-8-4-11-2-2 3-2 7 2 10 4 5 9 10 14 15 1 1 2 3 2 4 0 11 0 22 0 34-1-1-3-2-4-2-8-5-16-10-24-15-1-1-3-3-3-5-2-7-3-13-5-19-1-6-4-8-8-7-4 1-5 4-4 9 0 3 1 6 2 10-5-3-9-5-13-8-5-3-9-3-11 1-2 3-1 7 4 10 4 2 8 5 14 8-5 1-8 2-11 3-5 1-7 4-6 8 0 3 4 5 8 4 7-1 13-3 20-4 2-1 4-1 5 0 10 6 20 12 31 19-8 5-16 9-23 14-6 4-12 6-19 3-4-1-9-2-13-3-5-1-9 1-9 5-1 4 1 6 6 7 3 1 6 2 8 2 1 0 1 1 2 1-5 3-9 6-14 9-4 3-5 6-3 10 2 3 6 3 10 1 4-3 9-6 14-9-1 4-2 8-2 11-1 5 1 8 4 8 4 1 7-1 8-5 1-7 3-13 4-20 1-2 3-4 5-6 8-5 17-11 27-17 0 7-1 14 0 20 2 12-2 21-11 28-3 2-5 4-7 6-2 3-2 6 0 9 3 2 6 3 9 0 3-3 5-6 8-9 0 1 1 1 1 1 0 6 0 12 0 17 1 2 2 5 4 6 2 1 5 0 7-1 1-2 1-5 2-7 0-5 0-10 0-16 3 3 5 6 7 8 4 3 8 4 11 1 2-3 2-7-2-10-4-5-9-10-14-15-1-1-2-2-2-4-1-10 0-19 0-29-1-1 0-3 0-5 2 2 4 3 6 4 5 3 10 7 15 9 8 4 11 9 12 17 1 5 2 9 3 13 1 4 4 6 8 5 4-1 5-4 4-8 0-3-1-7-2-11 5 3 9 5 13 8 5 3 9 3 11-1 2-3 1-6-4-10-4-2-9-5-14-8 5-1 8-2 11-3 5-1 7-4 6-8-1-3-4-5-9-4-6 1-12 3-18 4-3 1-6 1-9-1-9-6-18-11-28-17 2-1 3-2 4-3 9-5 17-10 25-15 2-1 5-2 7-1 6 1 13 3 19 4 5 1 8-1 9-4 1-4-1-7-6-8-3-1-6-2-11-3 6-3 11-6 15-9 2-2 3-5 3-7 0-2-2-4-4-5-2 0-4 1-6 1-4 3-9 6-14 9 1-4 2-7 2-11 1-4-1-7-4-8-4-1-7 1-8 5-1 7-3 13-4 19-1 3-3 6-5 7-9 6-17 11-27 17z"/>
<glyph glyph-name="fridge-temp" unicode="&#57418;" d="M313 313c0-32 0-64 1-96 0-5 2-11 6-14 30-31 37-76 15-113-21-36-64-53-105-42-40 12-67 50-66 93 1 23 11 44 27 61 4 4 7 11 7 16 1 63 0 126 1 189 0 37 26 62 60 60 30-1 54-25 54-56 1-33 0-65 0-98 0 0 0 0 0 0z m-19-4c0 33 0 66 0 100 0 23-16 39-38 39-23 0-38-17-38-42 0-64 0-128 0-192 0-10-2-17-10-24-16-13-24-30-24-50-2-35 20-65 54-74 31-8 66 6 82 36 16 30 10 67-17 89-7 6-9 12-9 21 0 32 0 65 0 97z m-17-75c0-12 1-25 0-38 0-7 2-11 8-15 22-14 30-39 23-62-7-22-28-38-52-38-24 1-45 16-52 40-6 22 2 46 23 60 6 4 8 8 8 16 0 25 0 50 0 76 0 16 8 25 21 25 13 0 21-9 21-25 0-13 0-26 0-39z"/>
<glyph glyph-name="washer-cottons" unicode="&#57419;" d="M236 125l-154 0c-4 0-7 4-7 8l0 148-12-3c0 0-1 0-1 0-3 0-6 2-7 5l-28 68c0 2 0 4 1 6 1 2 2 3 4 4l96 28c2 1 5 0 7-1 2-2 2-5 2-7-2-13 0-24 5-31 5-5 11-8 18-8 8 0 15 4 20 10 4 5 8 14 6 29-1 2 0 5 2 7 2 1 5 2 7 1 14-4 88-30 88-30 2 0 4-2 5-4 1-2 0-4 0-6l-31-67c-2-3-6-5-10-3l-4 1 0-147c0-4-3-8-7-8z m-152 10l149 0 0 159 16-5 28 62c-12 4-63 22-81 27 2-16-3-26-8-32-7-9-17-13-28-13-10 0-19 4-25 11-7 8-10 20-8 35l-89-27 25-64 21 6z m401 17l-34 233c0 3-3 5-5 5l-117 0c-3 0-5-2-6-5l-40-236c-1-2 1-5 4-6l65-18 1 0 0 0c1 0 2 0 3 1 1 0 2 2 3 3l26 117 20-119c0-2 1-3 3-4 0 0 1-1 2-1l1 0 70 24c3 1 4 3 4 6z m-87 208c-1 0-1 0-2 0-7 0-16 4-25 9l-1 0c-6 4-12 7-17 11l82 0c-9-8-23-17-37-20z m45 16l6-42c-9 5-22 20-26 28 8 4 15 10 20 14z m-111 4l8 0c4-4 14-11 25-17-3-10-15-22-25-30-7-5-13-8-17-9z m82-246l-27 163-37-161-57 16 28 163c6 1 14 5 23 12 6 4 23 18 28 32 7-3 14-6 21-6l0-37c0-2 2-4 4-4 2 0 4 2 4 4l0 37c5 1 10 3 15 5 3-6 9-13 14-18 5-5 13-13 20-15l25-171z"/>
<glyph glyph-name="washer-easycare" unicode="&#57420;" d="M475 203c-16 17-108 49-212 52l0 27c0 7 7 13 14 20 8 6 17 14 20 25 2 12 0 24-7 33-8 10-21 15-38 15-14 0-26-5-34-14-9-10-14-25-12-40 0-4 3-6 7-6l1 0c3 0 6 4 6 7-1 12 2 23 8 30 6 6 14 9 24 9 12 0 22-3 27-10 4-5 6-13 4-21-1-6-8-12-15-18-9-8-19-17-19-30l0-27c-99 0-177-31-199-41-16-7-25-23-21-41 4-19 20-32 38-32 2 0 3 0 5 0 7 1 16 4 28 8 30 10 81 27 157 25 64-1 101-14 131-25 18-6 33-12 49-12 1 0 2 0 2 0 19 0 35 9 41 25 6 14 4 31-5 41z m-7-36c-2-6-10-17-29-17 0 0-1 0-1 0-14 1-28 5-46 12-29 10-69 24-135 26-3 0-7 0-10 0-72 0-122-17-151-26-11-4-20-7-26-8-1 0-2 0-3 0-14 0-23 11-25 22-1 4-3 19 13 26 22 10 100 41 199 40 1 0 1 0 2 0 1 0 1 0 2 0 102-2 194-34 207-48 6-6 7-18 3-27z"/>
<glyph glyph-name="washer-mixedfabrics" unicode="&#57421;" d="M474 112c-12 13-77 35-150 37l0 19c0 5 5 9 10 14 6 5 12 10 14 18 2 9 0 17-5 23-6 7-15 11-27 11-9 0-18-4-23-10-7-7-10-18-9-28 0-3 2-5 5-5l0 0c3 1 5 3 5 6-1 8 1 15 6 21 4 4 9 6 16 6 9 0 16-2 19-7 4-4 5-9 3-15-1-4-5-9-10-13-6-5-14-11-14-21l0-19c-70 0-125-22-140-29-12-5-17-16-15-29 3-13 14-22 27-22 1 0 2 0 4 0 5 1 11 3 19 6 21 7 57 18 111 17 45-1 71-10 92-17 13-5 24-9 35-9 1 0 1 0 1 0 14 0 25 6 30 17 4 10 2 22-4 29z m-5-25c-2-4-7-12-21-12 0 0 0 0-1 0-9 1-19 4-31 8-21 8-49 18-96 19-2 0-5 0-7 0-51 0-86-12-107-19-7-2-14-4-18-5 0 0-1 0-2 0-10 0-16 8-18 15 0 3-2 14 10 19 15 7 70 28 140 28 0 0 1 0 1 0 1 0 1 0 2 0 72-1 137-24 146-34 4-4 5-12 2-19z m-238 107l-146 0c-4 0-8 4-8 7l0 142-10-3c-1 0-1 0-2 0-3 0-5 2-6 4l-26 65c-1 2-1 4 0 6 1 2 2 3 4 4l91 27c2 0 5 0 7-2 1-1 2-4 2-6-2-13-1-23 5-29 4-5 10-8 17-8 7 0 14 4 19 9 4 5 8 14 5 28 0 2 1 5 2 6 2 2 5 2 7 2 13-5 84-29 84-29 2 0 4-2 4-4 1-1 1-3 0-5l-29-64c-2-3-6-5-9-4l-4 2 0-141c0-3-3-7-7-7z m-144 10l142 0 0 151 14-5 28 59c-12 4-61 21-78 26 2-15-3-25-8-31-6-8-16-12-26-12-10 0-18 4-24 11-7 8-10 19-8 33l-85-26 25-60 20 5 0-151z"/>
<glyph glyph-name="washer-silk" unicode="&#57422;" d="M476 283c-13 23-52 40-78 40l0 0c-11 0-31-5-57-11-28-7-62-15-88-17 10 26 18 95-2 124-18 25-62 64-116 53l0 0-3-1c-45-11-75-34-89-69-19-45-5-95 9-118 13-22 43-41 75-55-19-20-29-57-33-79-5-26-5-99 10-110 3-1 6-2 9-2 8 0 19 6 29 12 10 5 20 11 27 11l6 0c41 2 85 4 96 8l1 1 1 2c7 10-7 22-25 38-13 11-29 26-30 34 0 4 0 8 0 12-1 16-2 32 4 45 4-1 8-1 12-1 22 0 43 5 64 10 19 4 37 8 51 7 34-1 70-27 80-36l8-8 1 11c4 32 25 80 37 93l3 3z m-236-181c8-7 21-18 24-23-17-4-71-6-90-7l-5 0c-10-1-21-7-32-13-9-5-23-12-26-10-9 6-12 68-6 99 3 18 13 58 33 77 28-11 55-19 72-22-5-16-4-32-3-48 0-4 0-8 1-12 0-12 16-26 32-41z m189 93c-17 13-49 32-79 33-1 0-2 0-3 0-15 0-33-4-51-8-20-4-41-9-62-9-7 0-13 1-19 2-51 9-132 41-154 76-12 22-25 68-8 109 13 30 39 51 79 62 1 0 3 1 3 1 49 12 90-25 107-49 17-24 10-95-1-117l2-1c-1 0-2 0-4 0-3 0-7 1-10 1-15 2-31 6-46 11 16 18 35 52 21 76-16 26-28 37-57 34l0 0c0 0 0 0 0 0-10-1-24-11-32-26-5-9-9-24-1-42 15-36 70-59 114-64 3 0 7 0 11 0 29 0 71 10 105 18 24 5 44 10 54 10l0 0c24 0 54-15 66-31-13-16-29-56-35-86z m-257 116c-22 10-41 24-48 42-5 11-5 22 1 32 6 12 18 19 23 21 24 2 32-6 46-29 12-20-7-52-22-66z"/>
<glyph glyph-name="washer-wool" unicode="&#57423;" d="M468 84c-2 3-7 3-10 1-1 0-39-28-66-28-4 0-7 1-10 2-17 7-35 15-47 20 63 30 108 91 116 163 1 1 1 2 1 3 1 2 0 3 0 4 0 5 0 10 0 16 0 23-3 45-11 66 0 0 0 0 0 0-25 74-92 130-173 137-2 1-5 2-7 1-4 0-9 0-13 0-113 0-205-91-205-204 0-16 2-31 5-45 0 0 0-1 0-1 5-24 15-47 28-67 1 0 1-1 1-1 37-55 100-91 171-91 23 0 46 4 68 11l60-25c5-2 10-3 17-3 31 0 69 27 73 30 2 2 3 3 3 5 0 2 0 4-1 6z m-247 236c26-4 69-42 84-62-18-7-38-14-58-20-12-3-24-6-36-9 0 15 3 50 10 91z m2 15c5 24 10 46 16 64 38-6 126-76 134-108-16-10-34-19-54-27-15 22-62 65-96 71z m-103-131c4 0 9 0 13 0 0 0 1 0 1 0l0 0c0 0 0 0 0 0 22 1 46 4 71 9l1 0 1 1c14 3 29 6 44 10 23 7 46 15 67 24l0 0 1 0c46 19 86 43 113 67 4-16 7-33 7-50 0-5 0-10-1-15-47-36-114-67-185-85-37-9-72-14-102-14-27 0-48 4-64 11-10 15-18 31-23 48 16-4 35-6 56-6z m266 95c-11 26-50 59-59 66-9 8-52 41-83 47 7 21 15 35 23 43 74-8 135-57 160-124-11-11-25-22-41-32z m-190-73c-19-3-38-6-55-7 1 47 19 193 52 229 17 5 35 8 55 8 0 0 0 0 1 0-36-51-54-191-53-230z m-26 213c-30-57-43-182-44-220-2 0-4-1-6-1-24 0-44 3-60 9-2 12-4 25-4 38 0 77 47 144 114 174z m-19-303c31 0 67 6 105 15 68 17 132 45 180 79-13-66-58-120-119-144l-1 0c-2 0-4 0-5-2-20-7-41-11-63-11-59 0-112 27-147 69 15-4 31-6 50-6z"/>
<glyph glyph-name="oven-hot-air" unicode="&#57424;" d="M484 256c0-63 0-126 0-188 0-23-17-40-40-40-125 0-250 0-375 0-23 0-41 19-41 40 1 125 1 249 0 373 0 24 18 43 43 43 57-1 113 0 169 0 68 0 136 0 203 0 19 0 35-11 39-29 1-3 2-7 2-11 0-63 0-125 0-188z m-430 0c0-63 0-125 0-187 0-11 5-16 16-16 124 0 248 0 372 0 12 0 18 5 18 17 0 124 0 248 0 371 0 12-6 18-17 18-125 0-249 0-373 0-11 0-16-6-16-17 0-62 0-124 0-186z m372 0c1-88-73-171-173-169-94 1-166 79-166 169 0 94 78 171 171 170 91-1 169-79 168-170z m-169 144c-86 0-143-71-145-140-1-81 63-147 142-148 75-1 146 58 147 144 0 79-65 144-144 144z m0-175c-6-8-11-17-18-25-15-17-33-29-54-38-5-1-10 1-13 6-5 9-10 18-15 27-6 10-12 20-17 29-3 6-2 12 3 16 24 19 51 30 83 30 1 0 3 0 5 0-1 1-1 2-2 3-12 21-19 44-19 69 0 6 0 12 1 17 2 9 6 12 14 12 21 0 41 0 62 0 9 0 12-2 13-10 1-10 2-20 1-29-1-22-7-43-20-62 7 0 13-1 20-1 26-3 49-13 69-30 5-4 5-8 2-13-10-19-20-38-30-57-3-7-9-9-16-6-16 6-30 15-43 27-11 10-20 22-26 35z m-71-38c26 13 45 32 56 59-21 6-61-4-79-18 7-14 15-27 23-41z m70 85c20 23 24 49 23 78-15 0-31 0-46 0-1-29 4-55 23-78z m70-85c8 14 15 28 23 41-24 16-50 21-78 18 11-27 29-46 55-59z"/>
<glyph glyph-name="oven-pizza-setting" unicode="&#57425;" d="M478 256c0-61 0-122 0-183 0-22-17-39-39-39-122 0-243 0-365 0-22 0-40 18-40 40 1 121 1 242 0 363 0 22 17 41 42 41 50-1 101 0 152 0 70 0 140 0 210 0 18 0 32-10 38-26 1-4 2-8 2-13 0-61 0-122 0-183z m-221 197c-61 0-121 0-182 0-10 0-16-5-16-16 0-121 0-242 0-363 0-10 6-16 16-16 121 0 242 0 363 0 11 0 16 6 16 16 0 59 0 117 0 175 0 63 0 126 0 189 0 8-5 14-12 15-2 0-4 0-5 0-60 0-120 0-180 0z m-1-42c70 0 125-55 125-125 0-69-55-124-125-124-72 0-125 59-124 127 1 67 56 122 124 122z m0-18c-58 0-105-48-105-106-1-60 46-107 106-107 58 0 106 47 106 106 0 59-48 107-107 107z m1-285c-48 0-95 0-143 1-4 0-9 1-13 3-6 3-6 12 0 17 4 3 9 3 14 3 24 0 48 0 71 0 71 0 141 0 212 0 4 0 8 0 11-2 5-1 8-5 8-10 0-5-3-8-8-10-3-1-7-1-10-1-47-1-95-1-142-1z m18 189c8-1 16-1 24-3 15-3 29-10 41-20 3-3 4-6 2-10-6-12-13-24-19-36-1-1-2-3-2-4-4-7-9-8-15-6-22 10-39 24-49 46-1-1-1-2-2-2-10-22-28-35-50-44-5-2-9 0-11 4-8 14-16 28-24 42-2 3-1 7 2 10 13 11 28 18 45 21 7 1 13 1 20 2 0 1-1 3-2 4-11 18-14 38-12 58 0 3 1 5 1 7 2 4 5 6 9 5 16 0 31 0 46 0 6 0 8-1 9-6 1-2 2-5 2-8 1-22-3-42-15-60z m-1 58c-12 0-23 0-35 0-1-21 4-40 18-57 14 17 17 36 17 57z m-29-76c-21 3-40-1-57-14 5-10 11-19 16-29 16 5 35 25 41 43z m80-14c-16 13-44 18-57 14 7-20 21-34 40-43 5 10 11 20 17 29z"/>
<glyph glyph-name="oven-preheating" unicode="&#57426;" d="M485 256c0-63-1-126 0-189 0-21-18-40-40-40-126 0-252 0-378 0-23 0-40 17-40 40 0 125 1 251 0 376 0 22 16 42 42 42 48 0 96 0 145 0 76 0 153 0 229 0 16 0 29-7 37-21 4-6 5-12 5-18 0-63 0-127 0-190z m-229 204c-62 0-125 0-187 0-2 0-4 0-6 0-7-2-11-7-11-16 0-125 0-250 0-375 0-11 5-17 17-17 124 0 249 0 374 0 11 0 17 6 17 17 0 125 0 249 0 374 0 12-6 17-18 17-62 0-124 0-186 0z m0-359c-29 0-58 0-88 0-1 0-2 0-3 0-8 0-15 2-21 8-10 9-21 18-32 27-7 7-8 16-2 22 4 5 15 8 22 1 10-8 20-17 30-25 2-2 5-3 8-3 58 0 115 0 173 0 2 0 5 1 7 3 11 8 20 17 31 26 7 6 16 5 22-2 5-7 5-15-2-21-10-9-20-17-29-26-8-8-18-10-29-10-29 0-58 0-87 0z m0 67c-31 0-62 0-94 0-6 0-12 2-17 6-11 11-23 20-34 31-6 5-6 14-1 20 5 6 15 7 21 2 3-2 6-5 9-7 7-7 15-13 22-19 3-2 6-3 8-3 58 0 115 0 172 0 4 0 6 0 8 2 10 9 20 18 31 26 5 5 10 5 16 3 5-2 9-6 9-12 1-5-1-9-4-13-13-10-25-21-38-32-3-3-8-4-13-4-28 0-56 0-84 0-3 0-7 0-11 0 0 0 0 0 0 0z m17 233c0-1-1-3-3-5-11-10-16-22-16-37 0-7 3-14 7-20 5-8 10-17 15-25 16-26 5-63-14-80-5-4-12-4-16 0-5 5-4 12 1 17 12 11 16 25 14 41-1 4-2 8-5 12-5 10-11 20-18 30-13 22-7 58 16 77 3 3 8 5 12 3 5-2 7-6 7-13z m71 2c-1-3-2-6-4-7-10-9-15-20-16-34 0-7 2-14 6-20 3-5 6-11 9-16 6-9 12-18 14-29 4-24-2-46-21-63-5-4-12-4-16 0-4 5-4 12 0 16 12 11 17 24 16 40-1 5-3 10-6 14-5 10-12 20-17 30-12 23-9 45 5 65 3 5 7 9 11 13 4 3 8 3 12 1 4-2 6-5 7-10z m-152 12c5-1 9-3 11-8 1-4 0-9-4-12-13-12-18-27-14-43 3-8 8-15 12-22 6-11 14-21 16-33 4-25-2-46-21-63-5-5-12-4-17 1-4 5-3 11 2 16 11 11 16 24 14 39 0 5-3 10-5 15-6 10-13 20-18 31-13 25-5 58 17 76 2 1 5 2 7 3z"/>
<glyph glyph-name="oven-top-bottom-heating" unicode="&#57427;" d="M480 256c0-61 0-123 0-185 0-20-17-39-39-39-123 0-247 0-370 0-22 0-39 17-39 39 0 123 0 246 0 369 0 20 15 40 41 40 18 0 36 0 55 0 103 0 207 0 310 0 17 0 29-6 38-21 3-5 4-11 4-17 0-62 0-124 0-186z m-224 200c-61 0-122 0-183 0-11 0-17-5-17-17 0-122 0-244 0-366 0-11 6-16 17-16 122 0 244 0 366 0 11 0 16 5 16 16 0 122 0 244 0 366 0 9-5 17-17 17-61 0-121 0-182 0z m0-67c48 0 96 0 144-1 4 0 9 0 13-2 8-5 7-15-1-19-4-2-8-2-12-2-96 0-192 0-288 0-3 0-7 0-10 1-4 2-7 5-7 9-1 5 1 9 6 11 3 2 7 2 11 2 48 1 96 1 144 1z m1-267c-48 0-96 0-143 1-5 0-9 1-13 2-4 1-6 5-6 9 0 5 2 8 6 10 3 1 7 2 11 2 96 1 193 1 290 0 4 0 8-1 12-3 6-4 6-13-1-17-2-2-5-3-8-3-2-1-4-1-6-1-47 0-95 0-142 0z"/>
</font>
</defs>
</svg>
